<svg xmlns="http://www.w3.org/2000/svg" version="1.1" xmlns:xlink="http://www.w3.org/1999/xlink" xmlns:svgjs="http://svgjs.dev/svgjs" viewBox="0 0 780.6337890625 408.05078125"><style>text.label { fill:gray; }</style><rect width="62.85546875" height="26.341796875" x="214.07373046875" y="229.025390625" fill="white" stroke="black"></rect><text x="223.93115234375" y="246.4033203125" font-family="Helvetica" font-size="12" svgjs:data="{&quot;leading&quot;:&quot;1.3&quot;}"><tspan dy="0" x="223.93115234375" svgjs:data="{&quot;newLined&quot;:true}">Scraper</tspan></text><path d="M558.3873629772002 308.3329481093023C558.3553629772001 304.99864810930234 578.4126629772002 305.4708481093023 578.4313629772001 308.2301481093023C578.3552629772001 312.6670481093023 558.2881629772002 312.4734481093023 558.3873629772002 308.3329481093023ZM558.4167629772002 308.9790481093023C560.5674629772002 312.0393481093023 575.8114629772001 312.3513481093023 578.4167629772002 308.9790481093023V328.9790481093023C571.8835629772002 331.64744810930233 565.2302629772001 331.91484810930234 558.4167629772002 328.9790481093023Z " fill="white" stroke="black"></path><svg width="2" height="0" style="opacity: 0; position: absolute; left: -100%; top: -100%; overflow: hidden;" focusable="false" aria-hidden="true"><path d="M282.38427734375 0H298.22647734375L298.17127734375 4.212L302.38427734375 4.1818V20H282.38427734375ZM298.25727734375 0.021L302.38327734375 4.125 "></path></svg><text x="582.2015931419004" y="322.7451171875" font-family="Helvetica" font-size="11" svgjs:data="{&quot;leading&quot;:&quot;1.3&quot;}"><tspan dy="0" x="582.2015931419004" svgjs:data="{&quot;newLined&quot;:true}">Shared</tspan></text><rect width="60.916015625" height="26.341796875" x="405.5166015625" y="229.025390625" fill="white" stroke="black"></rect><text x="415.697265625" y="246.4033203125" font-family="Helvetica" font-size="12" svgjs:data="{&quot;leading&quot;:&quot;1.3&quot;}"><tspan dy="0" x="415.697265625" svgjs:data="{&quot;newLined&quot;:true}">Actions</tspan></text><rect width="60.6171875" height="26.341796875" x="164.16064453125" y="381.708984375" fill="white" stroke="black"></rect><text x="174.39111328125" y="399.0869140625" font-family="Helvetica" font-size="12" svgjs:data="{&quot;leading&quot;:&quot;1.3&quot;}"><tspan dy="0" x="174.39111328125" svgjs:data="{&quot;newLined&quot;:true}">Display</tspan></text><rect width="102.201171875" height="26.341796875" x="30.24658203125" y="229.025390625" fill="white" stroke="black"></rect><text x="40.54638671875" y="246.4033203125" font-family="Helvetica" font-size="12" svgjs:data="{&quot;leading&quot;:&quot;1.3&quot;}"><tspan dy="0" x="40.54638671875" svgjs:data="{&quot;newLined&quot;:true}">Authentication</tspan></text><rect width="108.142578125" height="26.341796875" x="561.1865234375" y="152.68359375" fill="white" stroke="black"></rect><text x="570.49609375" y="170.0615234375" font-family="Helvetica" font-size="12" svgjs:data="{&quot;leading&quot;:&quot;1.3&quot;}"><tspan dy="0" x="570.49609375" svgjs:data="{&quot;newLined&quot;:true}">Password Reset</tspan></text><rect width="119.580078125" height="26.341796875" x="661.0537109375" y="229.025390625" fill="white" stroke="black"></rect><text x="669.45703125" y="246.4033203125" font-family="Helvetica" font-size="12" svgjs:data="{&quot;leading&quot;:&quot;1.3&quot;}"><tspan dy="0" x="669.45703125" svgjs:data="{&quot;newLined&quot;:true}">Password Change</tspan></text><rect width="98.97265625" height="26.341796875" x="386.48828125" y="0" fill="white" stroke="black"></rect><text x="397.326171875" y="17.3779296875" font-family="Helvetica" font-size="12" svgjs:data="{&quot;leading&quot;:&quot;1.3&quot;}"><tspan dy="0" x="397.326171875" svgjs:data="{&quot;newLined&quot;:true}">User Interface</tspan></text><path d="M427.388459375 94.5889953125C432.861959375 96.3478953125 438.335459375 96.3439953125 443.80895937500003 94.5776953125M428.09175937500004 84.0806953125C433.70675937500005 85.53869531250001 439.136759375 85.4486953125 444.24275937500005 84.1536953125M426.317659375 89.5085953125C432.89475937500004 91.2204953125 439.299459375 90.8068953125 445.63155937500005 89.4972953125M445.63155937500005 89.4972953125C445.63155937500005 95.0200953125 441.52335937500004 99.1283953125 436.00045937500005 99.1283953125C430.47765937500003 99.1283953125 426.338659375 95.02019531250001 426.338659375 89.4972953125C426.338659375 83.97449531250001 430.47765937500003 79.8969953125 436.00045937500005 79.8969953125C441.52335937500004 79.8969953125 445.63155937500005 83.97449531250001 445.63155937500005 89.4972953125Z " fill="white" stroke="black"></path><text x="453.50432968750005" y="93.7197265625" font-family="Helvetica" font-size="11" svgjs:data="{&quot;leading&quot;:&quot;1.3&quot;}"><tspan dy="0" x="453.50432968750005" svgjs:data="{&quot;newLined&quot;:true}">API</tspan></text><rect width="127.84765625" height="26.341796875" x="0" y="305.3671875" fill="white" stroke="black"></rect><text x="10.025390625" y="322.7451171875" font-family="Helvetica" font-size="12" svgjs:data="{&quot;leading&quot;:&quot;1.3&quot;}"><tspan dy="0" x="10.025390625" svgjs:data="{&quot;newLined&quot;:true}">Flask JWT Extended</tspan></text><rect width="74.62109375" height="26.341796875" x="516.4326171875" y="229.025390625" fill="white" stroke="black"></rect><text x="527.3291015625" y="246.4033203125" font-family="Helvetica" font-size="12" svgjs:data="{&quot;leading&quot;:&quot;1.3&quot;}"><tspan dy="0" x="527.3291015625" svgjs:data="{&quot;newLined&quot;:true}">Flask Mail</tspan></text><rect width="98.837890625" height="26.341796875" x="178.25341796875" y="305.3671875" fill="white" stroke="black"></rect><text x="188.11376953125" y="322.7451171875" font-family="Helvetica" font-size="12" svgjs:data="{&quot;leading&quot;:&quot;1.3&quot;}"><tspan dy="0" x="188.11376953125" svgjs:data="{&quot;newLined&quot;:true}">BeautifulSoup</tspan></text><rect width="202.02734375" height="26.341796875" x="144.48779296875" y="76.341796875" fill="white" stroke="black"></rect><text x="155.14990234375" y="93.7197265625" font-family="Helvetica" font-size="12" svgjs:data="{&quot;leading&quot;:&quot;1.3&quot;}"><tspan dy="0" x="155.14990234375" svgjs:data="{&quot;newLined&quot;:true}">Json Source Websites Repository</tspan></text><rect width="69.154296875" height="26.341796875" x="163.22998046875" y="152.68359375" fill="white" stroke="black"></rect><text x="173.03759765625" y="170.0615234375" font-family="Helvetica" font-size="12" svgjs:data="{&quot;leading&quot;:&quot;1.3&quot;}"><tspan dy="0" x="173.03759765625" svgjs:data="{&quot;newLined&quot;:true}">Executor</tspan></text><path d="M282.38427734375 155.8544921875H298.22647734375L298.17127734375 160.0664921875L302.38427734375 160.0362921875V175.8544921875H282.38427734375ZM298.25727734375 155.8754921875L302.38327734375 159.9794921875 " fill="white" stroke="black"></path><g><polyline points="276.92919921875,246.39794060600084 531.01416015625,280.3671875 558.6124441999978,308.5380859375" stroke-width="0.25" stroke="black" fill="none" marker-end="url(#SvgjsMarker1000)"></polyline></g><defs><marker markerWidth="40" markerHeight="30" refX="20" refY="15" viewBox="0 0 40 30" orient="auto" id="SvgjsMarker1000"><path d="m 0 0 l 20 15 l -20 15 a 7.5 1 90 0 0 0 -30 z" fill="black" stroke-width="0.1" stroke="black"></path></marker><marker markerWidth="40" markerHeight="30" refX="20" refY="15" viewBox="0 0 40 30" orient="auto" id="SvgjsMarker1001"><path d="m 0 0 l 20 15 l -20 15 a 7.5 1 90 0 0 0 -30 z" fill="black" stroke-width="0.1" stroke="black"></path></marker><marker markerWidth="40" markerHeight="30" refX="20" refY="15" viewBox="0 0 40 30" orient="auto" id="SvgjsMarker1002"><path d="m 0 0 l 20 15 l -20 15 a 7.5 1 90 0 0 0 -30 z" fill="black" stroke-width="0.1" stroke="black"></path></marker><marker markerWidth="40" markerHeight="30" refX="20" refY="15" viewBox="0 0 40 30" orient="auto" id="SvgjsMarker1003"><path d="m 0 0 l 20 15 l -20 15 a 7.5 1 90 0 0 0 -30 z" fill="black" stroke-width="0.1" stroke="black"></path></marker><marker markerWidth="40" markerHeight="30" refX="20" refY="15" viewBox="0 0 40 30" orient="auto" id="SvgjsMarker1004"><path d="m 40 0 l -20 15 l 20 15 a 7.5 1 -90 0 1 0 -30 z" fill="black" stroke-width="0.1" stroke="black"></path></marker><marker markerWidth="40" markerHeight="30" refX="20" refY="15" viewBox="0 0 40 30" orient="auto" id="SvgjsMarker1005"><path d="m 0 0 l 20 15 l -20 15 a 7.5 1 90 0 0 0 -30 z" fill="black" stroke-width="0.1" stroke="black"></path></marker><marker markerWidth="40" markerHeight="30" refX="20" refY="15" viewBox="0 0 40 30" orient="auto" id="SvgjsMarker1006"><path d="m 40 0 l -20 15 l 20 15 a 7.5 1 -90 0 1 0 -30 z" fill="black" stroke-width="0.1" stroke="black"></path></marker><marker markerWidth="40" markerHeight="30" refX="20" refY="15" viewBox="0 0 40 30" orient="auto" id="SvgjsMarker1007"><path d="m 0 0 l 20 15 l -20 15 a 7.5 1 90 0 0 0 -30 z" fill="black" stroke-width="0.1" stroke="black"></path></marker><marker markerWidth="40" markerHeight="30" refX="20" refY="15" viewBox="0 0 40 30" orient="auto" id="SvgjsMarker1008"><path d="m 40 0 l -20 15 l 20 15 a 7.5 1 -90 0 1 0 -30 z" fill="black" stroke-width="0.1" stroke="black"></path></marker><marker markerWidth="40" markerHeight="30" refX="20" refY="15" viewBox="0 0 40 30" orient="auto" id="SvgjsMarker1009"><path d="m 0 0 l 20 15 l -20 15 a 7.5 1 90 0 0 0 -30 z" fill="black" stroke-width="0.1" stroke="black"></path></marker><marker markerWidth="40" markerHeight="30" refX="20" refY="15" viewBox="0 0 40 30" orient="auto" id="SvgjsMarker1010"><path d="m 0 0 l 20 15 l -20 15 a 7.5 1 90 0 0 0 -30 z" fill="black" stroke-width="0.1" stroke="black"></path></marker><marker markerWidth="40" markerHeight="30" refX="20" refY="15" viewBox="0 0 40 30" orient="auto" id="SvgjsMarker1011"><path d="m 0 0 l 20 15 l -20 15 a 7.5 1 90 0 0 0 -30 z" fill="black" stroke-width="0.1" stroke="black"></path></marker><marker markerWidth="40" markerHeight="30" refX="20" refY="15" viewBox="0 0 40 30" orient="auto" id="SvgjsMarker1012"><path d="m 0 0 l 20 15 l -20 15 a 7.5 1 90 0 0 0 -30 z" fill="black" stroke-width="0.1" stroke="black"></path></marker><marker markerWidth="40" markerHeight="30" refX="20" refY="15" viewBox="0 0 40 30" orient="auto" id="SvgjsMarker1013"><path d="m 0 0 l 20 15 l -20 15 a 7.5 1 90 0 0 0 -30 z" fill="black" stroke-width="0.1" stroke="black"></path></marker><marker markerWidth="40" markerHeight="30" refX="20" refY="15" viewBox="0 0 40 30" orient="auto" id="SvgjsMarker1014"><path d="m 0 0 l 20 15 l -20 15 a 7.5 1 90 0 0 0 -30 z" fill="black" stroke-width="0.1" stroke="black"></path></marker><marker markerWidth="40" markerHeight="30" refX="20" refY="15" viewBox="0 0 40 30" orient="auto" id="SvgjsMarker1015"><path d="m 0 0 l 20 15 l -20 15 a 7.5 1 90 0 0 0 -30 z" fill="black" stroke-width="0.1" stroke="black"></path></marker><marker markerWidth="40" markerHeight="30" refX="20" refY="15" viewBox="0 0 40 30" orient="auto" id="SvgjsMarker1016"><path d="m 0 0 l 20 15 l -20 15 a 7.5 1 90 0 0 0 -30 z" fill="black" stroke-width="0.1" stroke="black"></path></marker><marker markerWidth="40" markerHeight="30" refX="20" refY="15" viewBox="0 0 40 30" orient="auto" id="SvgjsMarker1017"><path d="m 0 0 l 20 15 l -20 15 a 7.5 1 90 0 0 0 -30 z" fill="black" stroke-width="0.1" stroke="black"></path></marker><marker markerWidth="40" markerHeight="30" refX="20" refY="15" viewBox="0 0 40 30" orient="auto" id="SvgjsMarker1018"><path d="m 0 0 l 20 15 l -20 15 a 7.5 1 90 0 0 0 -30 z" fill="black" stroke-width="0.1" stroke="black"></path></marker><marker markerWidth="40" markerHeight="30" refX="20" refY="15" viewBox="0 0 40 30" orient="auto" id="SvgjsMarker1019"><path d="m 0 0 l 20 15 l -20 15 a 7.5 1 90 0 0 0 -30 z" fill="black" stroke-width="0.1" stroke="black"></path></marker><marker markerWidth="40" markerHeight="30" refX="20" refY="15" viewBox="0 0 40 30" orient="auto" id="SvgjsMarker1020"><path d="m 0 0 l 20 15 l -20 15 a 7.5 1 90 0 0 0 -30 z" fill="black" stroke-width="0.1" stroke="black"></path></marker><marker markerWidth="40" markerHeight="30" refX="20" refY="15" viewBox="0 0 40 30" orient="auto" id="SvgjsMarker1021"><path d="m 0 0 l 20 15 l -20 15 a 7.5 1 90 0 0 0 -30 z" fill="black" stroke-width="0.1" stroke="black"></path></marker><marker markerWidth="40" markerHeight="30" refX="20" refY="15" viewBox="0 0 40 30" orient="auto" id="SvgjsMarker1022"><path d="m 0 0 l 20 15 l -20 15 a 7.5 1 90 0 0 0 -30 z" fill="black" stroke-width="0.1" stroke="black"></path></marker><marker markerWidth="40" markerHeight="30" refX="20" refY="15" viewBox="0 0 40 30" orient="auto" id="SvgjsMarker1023"><path d="m 0 0 l 20 15 l -20 15 a 7.5 1 90 0 0 0 -30 z" fill="black" stroke-width="0.1" stroke="black"></path></marker><marker markerWidth="40" markerHeight="30" refX="20" refY="15" viewBox="0 0 40 30" orient="auto" id="SvgjsMarker1024"><path d="m 0 0 l 20 15 l -20 15 a 7.5 1 90 0 0 0 -30 z" fill="black" stroke-width="0.1" stroke="black"></path></marker><marker markerWidth="40" markerHeight="30" refX="20" refY="15" viewBox="0 0 40 30" orient="auto" id="SvgjsMarker1025"><path d="m 0 0 l 20 15 l -20 15 a 7.5 1 90 0 0 0 -30 z" fill="black" stroke-width="0.1" stroke="black"></path></marker></defs><g><polyline points="435.974609375,255.3671875 435.974609375,280.3671875 558.4091796875,315.6558401351064" stroke-width="0.25" stroke="black" fill="none" marker-end="url(#SvgjsMarker1001)"></polyline></g><g><polyline points="568.4091796875,328.5380859375 568.4091796875,356.708984375 224.77783203125,391.7860537621343" stroke-width="0.25" stroke="black" fill="none" marker-end="url(#SvgjsMarker1002)"></polyline></g><g><polyline points="132.44775390625,249.31197185687284 355.4677734375,280.3671875 558.4091796875,316.74553186782856" stroke-width="0.25" stroke="black" fill="none" marker-end="url(#SvgjsMarker1003)" marker-start="url(#SvgjsMarker1004)"></polyline></g><g><polyline points="618.9829457214435,179.025390625 626.0537109375,204.025390625 626.0537109375,242.1962890625 626.0537109375,280.3671875 578.4091796875,311.9163132194679" stroke-width="0.25" stroke="black" fill="none" marker-end="url(#SvgjsMarker1005)" marker-start="url(#SvgjsMarker1006)"></polyline></g><g><polyline points="720.84375,255.3671875 720.84375,280.3671875 578.4091796875,316.0340018337926" stroke-width="0.25" stroke="black" fill="none" marker-end="url(#SvgjsMarker1007)" marker-start="url(#SvgjsMarker1008)"></polyline></g><g><polyline points="435.974609375,26.341796875 435.974609375,51.341796875 435.974609375,79.5126953125" stroke-width="0.25" stroke="black" fill="none" marker-end="url(#SvgjsMarker1009)"></polyline></g><g><polyline points="425.974609375,90.32316147516967 -35,127.68359375 -35,165.8544921875 -35,204.025390625 -35,242.1962890625 -35,280.3671875 -35,318.5380859375 -35,356.708984375 164.16064453125,389.8382211829062" stroke-width="0.25" stroke="black" fill="none" marker-end="url(#SvgjsMarker1010)"></polyline></g><g><polyline points="435.974609375,99.5126953125 435.974609375,127.68359375 435.974609375,165.8544921875 435.974609375,204.025390625 435.974609375,229.025390625" stroke-width="0.25" stroke="black" fill="none" marker-end="url(#SvgjsMarker1011)"></polyline></g><g><polyline points="425.974609375,90.58906149234598 81.34716796875,127.68359375 81.34716796875,165.8544921875 81.34716796875,204.025390625 81.34716796875,229.025390625" stroke-width="0.25" stroke="black" fill="none" marker-end="url(#SvgjsMarker1012)"></polyline></g><g><polyline points="445.974609375,91.64177922957428 615.2578125,127.68359375 615.2578125,152.68359375" stroke-width="0.25" stroke="black" fill="none" marker-end="url(#SvgjsMarker1013)"></polyline></g><g><polyline points="445.974609375,90.80719830310098 730.84375,127.68359375 730.84375,165.8544921875 730.84375,204.025390625 724.2942578414818,229.025390625" stroke-width="0.25" stroke="black" fill="none" marker-end="url(#SvgjsMarker1014)"></polyline></g><g><polyline points="636.7871422169015,179.025390625 681.44873046875,204.025390625 705.9405691875056,229.025390625" stroke-width="0.25" stroke="black" fill="none" marker-end="url(#SvgjsMarker1015)"></polyline><polyline points="709.9405691875056,229.025390625 685.44873046875,204.025390625 640.7871422169015,179.025390625" stroke-width="0.25" stroke="black" fill="none" stroke-dasharray="2" marker-end="url(#SvgjsMarker1016)"></polyline></g><g><polyline points="73.33523089318379,255.3671875 61.923828125,280.3671875 61.923828125,305.3671875" stroke-width="0.25" stroke="black" fill="none" marker-end="url(#SvgjsMarker1017)"></polyline><polyline points="65.923828125,305.3671875 65.923828125,280.3671875 77.33523089318379,255.3671875" stroke-width="0.25" stroke="black" fill="none" stroke-dasharray="2" marker-end="url(#SvgjsMarker1018)"></polyline></g><g><polyline points="592.0321348200408,179.025390625 551.7431640625,204.025390625 551.7431640625,229.025390625" stroke-width="0.25" stroke="black" fill="none" marker-end="url(#SvgjsMarker1019)"></polyline><polyline points="555.7431640625,229.025390625 555.7431640625,204.025390625 596.0321348200408,179.025390625" stroke-width="0.25" stroke="black" fill="none" stroke-dasharray="2" marker-end="url(#SvgjsMarker1020)"></polyline></g><g><polyline points="237.3495193689518,255.3671875 225.67236328125,280.3671875 225.67236328125,305.3671875" stroke-width="0.25" stroke="black" fill="none" marker-end="url(#SvgjsMarker1021)"></polyline><polyline points="229.67236328125,305.3671875 229.67236328125,280.3671875 241.3495193689518,255.3671875" stroke-width="0.25" stroke="black" fill="none" stroke-dasharray="2" marker-end="url(#SvgjsMarker1022)"></polyline></g><g><polyline points="261.6784160599472,102.68359375 292.38427734375,127.68359375 292.38427734375,155.8544921875" stroke-width="0.25" stroke="black" fill="none" marker-end="url(#SvgjsMarker1023)"></polyline></g><g><polyline points="292.38427734375,175.8544921875 292.38427734375,204.025390625 261.6784160599472,229.025390625" stroke-width="0.25" stroke="black" fill="none" marker-end="url(#SvgjsMarker1024)"></polyline></g><g><polyline points="197.80712890625,179.025390625 197.80712890625,204.025390625 229.04449682908879,229.025390625" stroke-width="0.25" stroke="black" fill="none" marker-end="url(#SvgjsMarker1025)"></polyline></g></svg>