<?xml version="1.0" encoding="UTF-8" standalone="no"?><svg xmlns="http://www.w3.org/2000/svg" xmlns:xlink="http://www.w3.org/1999/xlink" contentScriptType="application/ecmascript" contentStyleType="text/css" height="568px" preserveAspectRatio="none" style="width:266px;height:568px;" version="1.1" viewBox="0 0 266 568" width="266px" zoomAndPan="magnify"><defs/><g><rect fill="#1168BD" height="433" style="stroke: #3C7FC0; stroke-width: 1.5;" width="233" x="22" y="124"/><text fill="#000000" font-family="sans-serif" font-size="14" font-style="italic" lengthAdjust="spacingAndGlyphs" textLength="67" x="105" y="138.9951">«system»</text><text fill="#FFFFFF" font-family="sans-serif" font-size="16" font-weight="bold" lengthAdjust="spacingAndGlyphs" textLength="217" x="30" y="157.1484">Seismo Scraping System</text><path d="M64.5,475 C64.5,465 116,465 116,465 C116,465 167.5,465 167.5,475 L167.5,530.5625 C167.5,540.5625 116,540.5625 116,540.5625 C116,540.5625 64.5,540.5625 64.5,530.5625 L64.5,475 " fill="#438DD5" style="stroke: #3C7FC0; stroke-width: 1.5;"/><path d="M64.5,475 C64.5,485 116,485 116,485 C116,485 167.5,485 167.5,475 " fill="none" style="stroke: #3C7FC0; stroke-width: 1.5;"/><text fill="#FFFFFF" font-family="sans-serif" font-size="12" font-style="italic" lengthAdjust="spacingAndGlyphs" textLength="74" x="79" y="500.1387">«container»</text><text fill="#FFFFFF" font-family="sans-serif" font-size="16" font-weight="bold" lengthAdjust="spacingAndGlyphs" textLength="83" x="74.5" y="517.8203">Database</text><text fill="#FFFFFF" font-family="sans-serif" font-size="12" font-style="italic" lengthAdjust="spacingAndGlyphs" textLength="50" x="91" y="532.7324">[MySQL]</text><rect fill="#438DD5" height="66.5625" style="stroke: #3C7FC0; stroke-width: 1.5;" width="101" x="64.5" y="177"/><text fill="#FFFFFF" font-family="sans-serif" font-size="12" font-style="italic" lengthAdjust="spacingAndGlyphs" textLength="74" x="78" y="198.1387">«container»</text><text fill="#FFFFFF" font-family="sans-serif" font-size="16" font-weight="bold" lengthAdjust="spacingAndGlyphs" textLength="81" x="74.5" y="215.8203">Frontend</text><text fill="#FFFFFF" font-family="sans-serif" font-size="12" font-style="italic" lengthAdjust="spacingAndGlyphs" textLength="47" x="91.5" y="230.7324">[Vue.js]</text><rect fill="#438DD5" height="66.5625" style="stroke: #3C7FC0; stroke-width: 1.5;" width="108" x="64" y="321"/><text fill="#FFFFFF" font-family="sans-serif" font-size="12" font-style="italic" lengthAdjust="spacingAndGlyphs" textLength="74" x="81" y="342.1387">«container»</text><text fill="#FFFFFF" font-family="sans-serif" font-size="16" font-weight="bold" lengthAdjust="spacingAndGlyphs" textLength="76" x="80" y="359.8203">Backend</text><text fill="#FFFFFF" font-family="sans-serif" font-size="12" font-style="italic" lengthAdjust="spacingAndGlyphs" textLength="88" x="74" y="374.7324">[Flask Python]</text><rect fill="#08427B" height="52.5938" style="stroke: #073B6F; stroke-width: 1.5;" width="77" x="76.5" y="8"/><text fill="#FFFFFF" font-family="sans-serif" font-size="12" font-style="italic" lengthAdjust="spacingAndGlyphs" textLength="57" x="86.5" y="29.1387">«person»</text><text fill="#FFFFFF" font-family="sans-serif" font-size="16" font-weight="bold" lengthAdjust="spacingAndGlyphs" textLength="41" x="94.5" y="46.8203">User</text><path d="M115,61.17 C115,90.34 115,138.21 115,171.65 " fill="none" id="user-&gt;front" style="stroke: #666666; stroke-width: 1.0;"/><polygon fill="#666666" points="115,176.89,119,167.89,115,171.89,111,167.89,115,176.89" style="stroke: #666666; stroke-width: 1.0;"/><text fill="#666666" font-family="sans-serif" font-size="13" font-weight="bold" lengthAdjust="spacingAndGlyphs" textLength="93" x="116" y="104.0669">Interact with</text><path d="M117.56,388.01 C117.27,409.17 116.89,436.98 116.58,459.84 " fill="none" id="back-&gt;db" style="stroke: #666666; stroke-width: 1.0;"/><polygon fill="#666666" points="116.51,464.93,120.6382,455.9881,116.5814,459.9305,112.639,455.8738,116.51,464.93" style="stroke: #666666; stroke-width: 1.0;"/><text fill="#666666" font-family="sans-serif" font-size="13" font-weight="bold" lengthAdjust="spacingAndGlyphs" textLength="98" x="118" y="431.0669">Reads/Writes</text><path d="M115.69,244.08 C116.14,265.3 116.72,293.08 117.19,315.34 " fill="none" id="front-&gt;back" style="stroke: #666666; stroke-width: 1.0;"/><polygon fill="#666666" points="117.3,320.58,121.1192,311.5018,117.2,315.581,113.1208,311.6618,117.3,320.58" style="stroke: #666666; stroke-width: 1.0;"/><text fill="#666666" font-family="sans-serif" font-size="13" font-weight="bold" lengthAdjust="spacingAndGlyphs" textLength="111" x="117" y="287.0669">HTTP Requests</text></g></svg>