<?xml version="1.0" encoding="UTF-8" standalone="no"?><svg xmlns="http://www.w3.org/2000/svg" xmlns:xlink="http://www.w3.org/1999/xlink" contentScriptType="application/ecmascript" contentStyleType="text/css" height="688px" preserveAspectRatio="none" style="width:964px;height:688px;" version="1.1" viewBox="0 0 964 688" width="964px" zoomAndPan="magnify"><defs><filter height="300%" id="f2jfaev29u73w" width="300%" x="-1" y="-1"><feGaussianBlur result="blurOut" stdDeviation="2.0"/><feColorMatrix in="blurOut" result="blurOut2" type="matrix" values="0 0 0 0 0 0 0 0 0 0 0 0 0 0 0 0 0 0 .4 0"/><feOffset dx="4.0" dy="4.0" in="blurOut2" result="blurOut3"/><feBlend in="SourceGraphic" in2="blurOut3" mode="normal"/></filter></defs><g><polygon fill="#FFFFFF" filter="url(#f2jfaev29u73w)" points="222,34,232,24,370,24,370,106,360,116,222,116,222,34" style="stroke: #000000; stroke-width: 1.5;"/><line style="stroke: #000000; stroke-width: 1.5;" x1="360" x2="369" y1="34" y2="25"/><line style="stroke: #000000; stroke-width: 1.5;" x1="222" x2="360" y1="34" y2="34"/><line style="stroke: #000000; stroke-width: 1.5;" x1="360" x2="360" y1="34" y2="116"/><text fill="#000000" font-family="sans-serif" font-size="14" font-weight="bold" lengthAdjust="spacingAndGlyphs" textLength="72" x="256" y="49.9951">Frontend</text><polygon fill="#FFFFFF" filter="url(#f2jfaev29u73w)" points="22,175,32,165,942,165,942,531,932,541,22,541,22,175" style="stroke: #000000; stroke-width: 1.5;"/><line style="stroke: #000000; stroke-width: 1.5;" x1="932" x2="941" y1="175" y2="166"/><line style="stroke: #000000; stroke-width: 1.5;" x1="22" x2="932" y1="175" y2="175"/><line style="stroke: #000000; stroke-width: 1.5;" x1="932" x2="932" y1="175" y2="541"/><text fill="#000000" font-family="sans-serif" font-size="14" font-weight="bold" lengthAdjust="spacingAndGlyphs" textLength="67" x="444.5" y="190.9951">Backend</text><rect fill="#FFFFFF" filter="url(#f2jfaev29u73w)" height="186" style="stroke: #000000; stroke-width: 1.5;" width="319" x="59" y="331"/><rect fill="#FFFFFF" height="10" style="stroke: #000000; stroke-width: 1.5;" width="15" x="358" y="336"/><rect fill="#FFFFFF" height="2" style="stroke: #000000; stroke-width: 1.5;" width="4" x="356" y="338"/><rect fill="#FFFFFF" height="2" style="stroke: #000000; stroke-width: 1.5;" width="4" x="356" y="342"/><text fill="#000000" font-family="sans-serif" font-size="14" font-weight="bold" lengthAdjust="spacingAndGlyphs" textLength="171" x="133" y="356.9951">Account Management</text><rect fill="#FFFFFF" filter="url(#f2jfaev29u73w)" height="205" style="stroke: #000000; stroke-width: 1.5;" width="280" x="638" y="213"/><rect fill="#FFFFFF" height="10" style="stroke: #000000; stroke-width: 1.5;" width="15" x="898" y="218"/><rect fill="#FFFFFF" height="2" style="stroke: #000000; stroke-width: 1.5;" width="4" x="896" y="220"/><rect fill="#FFFFFF" height="2" style="stroke: #000000; stroke-width: 1.5;" width="4" x="896" y="224"/><text fill="#000000" font-family="sans-serif" font-size="14" font-weight="bold" lengthAdjust="spacingAndGlyphs" textLength="62" x="747" y="238.9951">Scraper</text><path d="M349,584 C349,574 408,574 408,574 C408,574 467,574 467,584 L467,666 C467,676 408,676 408,676 C408,676 349,676 349,666 L349,584 " fill="#FFFFFF" filter="url(#f2jfaev29u73w)" style="stroke: #000000; stroke-width: 1.5;"/><path d="M349,584 C349,594 408,594 408,594 C408,594 467,594 467,584 " fill="none" style="stroke: #000000; stroke-width: 1.5;"/><text fill="#000000" font-family="sans-serif" font-size="14" font-weight="bold" lengthAdjust="spacingAndGlyphs" textLength="73" x="371.5" y="608.9951">Database</text><rect fill="#FEFECE" filter="url(#f2jfaev29u73w)" height="36.2969" style="stroke: #A80036; stroke-width: 1.5;" width="116" x="238" y="64"/><rect fill="#FEFECE" height="5" style="stroke: #A80036; stroke-width: 1.5;" width="10" x="233" y="69"/><rect fill="#FEFECE" height="5" style="stroke: #A80036; stroke-width: 1.5;" width="10" x="233" y="90.2969"/><text fill="#000000" font-family="sans-serif" font-size="14" lengthAdjust="spacingAndGlyphs" textLength="96" x="248" y="86.9951">User Interface</text><rect fill="#FEFECE" filter="url(#f2jfaev29u73w)" height="36.2969" style="stroke: #A80036; stroke-width: 1.5;" width="88" x="252" y="248"/><rect fill="#FEFECE" height="5" style="stroke: #A80036; stroke-width: 1.5;" width="10" x="247" y="253"/><rect fill="#FEFECE" height="5" style="stroke: #A80036; stroke-width: 1.5;" width="10" x="247" y="274.2969"/><text fill="#000000" font-family="sans-serif" font-size="14" lengthAdjust="spacingAndGlyphs" textLength="68" x="262" y="270.9951">Global API</text><rect fill="#FEFECE" filter="url(#f2jfaev29u73w)" height="36.2969" style="stroke: #A80036; stroke-width: 1.5;" width="94" x="397" y="366"/><rect fill="#FEFECE" height="5" style="stroke: #A80036; stroke-width: 1.5;" width="10" x="392" y="371"/><rect fill="#FEFECE" height="5" style="stroke: #A80036; stroke-width: 1.5;" width="10" x="392" y="392.2969"/><text fill="#000000" font-family="sans-serif" font-size="14" lengthAdjust="spacingAndGlyphs" textLength="74" x="407" y="388.9951">Display API</text><rect fill="#FEFECE" filter="url(#f2jfaev29u73w)" height="36.2969" style="stroke: #A80036; stroke-width: 1.5;" width="96" x="526" y="366"/><rect fill="#FEFECE" height="5" style="stroke: #A80036; stroke-width: 1.5;" width="10" x="521" y="371"/><rect fill="#FEFECE" height="5" style="stroke: #A80036; stroke-width: 1.5;" width="10" x="521" y="392.2969"/><text fill="#000000" font-family="sans-serif" font-size="14" lengthAdjust="spacingAndGlyphs" textLength="76" x="536" y="388.9951">Actions API</text><rect fill="#FEFECE" filter="url(#f2jfaev29u73w)" height="36.2969" style="stroke: #A80036; stroke-width: 1.5;" width="120" x="75" y="366"/><rect fill="#FEFECE" height="5" style="stroke: #A80036; stroke-width: 1.5;" width="10" x="70" y="371"/><rect fill="#FEFECE" height="5" style="stroke: #A80036; stroke-width: 1.5;" width="10" x="70" y="392.2969"/><text fill="#000000" font-family="sans-serif" font-size="14" lengthAdjust="spacingAndGlyphs" textLength="100" x="85" y="388.9951">Authentication</text><rect fill="#FEFECE" filter="url(#f2jfaev29u73w)" height="36.2969" style="stroke: #A80036; stroke-width: 1.5;" width="132" x="230" y="366"/><rect fill="#FEFECE" height="5" style="stroke: #A80036; stroke-width: 1.5;" width="10" x="225" y="371"/><rect fill="#FEFECE" height="5" style="stroke: #A80036; stroke-width: 1.5;" width="10" x="225" y="392.2969"/><text fill="#000000" font-family="sans-serif" font-size="14" lengthAdjust="spacingAndGlyphs" textLength="112" x="240" y="388.9951">Password Reset</text><rect fill="#FEFECE" filter="url(#f2jfaev29u73w)" height="36.2969" style="stroke: #A80036; stroke-width: 1.5;" width="145" x="103.5" y="465"/><rect fill="#FEFECE" height="5" style="stroke: #A80036; stroke-width: 1.5;" width="10" x="98.5" y="470"/><rect fill="#FEFECE" height="5" style="stroke: #A80036; stroke-width: 1.5;" width="10" x="98.5" y="491.2969"/><text fill="#000000" font-family="sans-serif" font-size="14" lengthAdjust="spacingAndGlyphs" textLength="125" x="113.5" y="487.9951">Password Change</text><rect fill="#FEFECE" filter="url(#f2jfaev29u73w)" height="36.2969" style="stroke: #A80036; stroke-width: 1.5;" width="73" x="699.5" y="366"/><rect fill="#FEFECE" height="5" style="stroke: #A80036; stroke-width: 1.5;" width="10" x="694.5" y="371"/><rect fill="#FEFECE" height="5" style="stroke: #A80036; stroke-width: 1.5;" width="10" x="694.5" y="392.2969"/><text fill="#000000" font-family="sans-serif" font-size="14" lengthAdjust="spacingAndGlyphs" textLength="53" x="709.5" y="388.9951">Scraper</text><rect fill="#FEFECE" filter="url(#f2jfaev29u73w)" height="36.2969" style="stroke: #A80036; stroke-width: 1.5;" width="248" x="654" y="248"/><rect fill="#FEFECE" height="5" style="stroke: #A80036; stroke-width: 1.5;" width="10" x="649" y="253"/><rect fill="#FEFECE" height="5" style="stroke: #A80036; stroke-width: 1.5;" width="10" x="649" y="274.2969"/><text fill="#000000" font-family="sans-serif" font-size="14" lengthAdjust="spacingAndGlyphs" textLength="228" x="664" y="270.9951">Json Source Websites Repository</text><rect fill="#FEFECE" filter="url(#f2jfaev29u73w)" height="36.2969" style="stroke: #A80036; stroke-width: 1.5;" width="86" x="365" y="624"/><rect fill="#FEFECE" height="5" style="stroke: #A80036; stroke-width: 1.5;" width="10" x="360" y="629"/><rect fill="#FEFECE" height="5" style="stroke: #A80036; stroke-width: 1.5;" width="10" x="360" y="650.2969"/><text fill="#000000" font-family="sans-serif" font-size="14" lengthAdjust="spacingAndGlyphs" textLength="66" x="375" y="646.9951">Database</text><path d="M322.88,284 C339.22,294.67 360.28,309 378,323 C395.13,336.53 413.42,353.36 426.38,365.75 " fill="none" id="API-DAPI" style="stroke: #A80036; stroke-width: 1.0;"/><path d="M340.34,272.25 C385.12,278.99 455.18,293.51 509,323 C528.93,333.92 547.54,352.27 559.7,365.81 " fill="none" id="API-AAPI" style="stroke: #A80036; stroke-width: 1.0;"/><path d="M269.17,284.16 C252.51,295 230.76,309.46 212,323 C192.76,336.88 171.53,353.52 156.25,365.76 " fill="none" id="API-A" style="stroke: #A80036; stroke-width: 1.0;"/><path d="M296,284.12 C296,306.05 296,343.85 296,365.81 " fill="none" id="API-PR" style="stroke: #A80036; stroke-width: 1.0;"/><path d="M251.87,270.9 C189.61,277.43 80.86,292.9 57,323 C28.56,358.87 32.47,387.35 57,426 C68.5,444.12 87.6,456.49 107.17,464.88 " fill="none" id="API-PC" style="stroke: #A80036; stroke-width: 1.0;"/><path d="M274.82,402.12 C253.02,419.74 219.24,447.05 197.37,464.73 " fill="none" id="PR-PC" style="stroke: #A80036; stroke-width: 1.0;"/><path d="M296,100.12 C296,134.81 296,213.03 296,247.79 " fill="none" id="UI-API" style="stroke: #A80036; stroke-width: 1.0;"/><text fill="#000000" font-family="sans-serif" font-size="13" lengthAdjust="spacingAndGlyphs" textLength="41" x="297" y="145.0669">HTTPS</text><path d="M771.8,284.12 C763.86,306.05 750.18,343.85 742.22,365.81 " fill="none" id="JSON-SC" style="stroke: #A80036; stroke-width: 1.0;"/><path d="M441.58,402.19 C435.02,448.83 416.95,577.33 410.41,623.88 " fill="none" id="DAPI-DB" style="stroke: #A80036; stroke-width: 1.0;"/><path d="M562.85,402.19 C532.61,448.83 449.28,577.33 419.1,623.88 " fill="none" id="AAPI-DB" style="stroke: #A80036; stroke-width: 1.0;"/><path d="M161.36,402.2 C175.75,410.76 194.22,420.44 212,426 C241.04,435.09 255.19,416.38 280,434 C326.35,466.91 305.87,500.79 336,549 C353.31,576.69 377.32,605.94 392.76,623.83 " fill="none" id="A-DB" style="stroke: #A80036; stroke-width: 1.0;"/><path d="M308.48,402.15 C314.81,411.32 322.35,422.97 328,434 C362.62,501.54 391.33,587.71 402.73,623.85 " fill="none" id="PR-DB" style="stroke: #A80036; stroke-width: 1.0;"/><path d="M198.29,501.25 C218.32,516.57 248.71,539.36 276,558 C310.98,581.89 352.53,607.59 379.53,623.96 " fill="none" id="PC-DB" style="stroke: #A80036; stroke-width: 1.0;"/><path d="M729.37,402.06 C715.83,434.84 681.99,507.09 632,549 C578.36,593.97 499.74,619.36 451.32,631.62 " fill="none" id="SC-DB" style="stroke: #A80036; stroke-width: 1.0;"/></g></svg>