<?xml version="1.0" encoding="UTF-8" standalone="no"?><svg xmlns="http://www.w3.org/2000/svg" xmlns:xlink="http://www.w3.org/1999/xlink" contentScriptType="application/ecmascript" contentStyleType="text/css" height="270px" preserveAspectRatio="none" style="width:673px;height:270px;" version="1.1" viewBox="0 0 673 270" width="673px" zoomAndPan="magnify"><defs/><g><text fill="#000000" font-family="Courier" font-size="14" font-weight="bold" lengthAdjust="spacingAndGlyphs" textLength="104" x="283" y="22.9951">Read Articles</text><line style="stroke: #383838; stroke-width: 1.0; stroke-dasharray: 5.0,5.0;" x1="71" x2="71" y1="64.5938" y2="230.2578"/><line style="stroke: #383838; stroke-width: 1.0; stroke-dasharray: 5.0,5.0;" x1="235" x2="235" y1="64.5938" y2="230.2578"/><line style="stroke: #383838; stroke-width: 1.0; stroke-dasharray: 5.0,5.0;" x1="371" x2="371" y1="64.5938" y2="230.2578"/><line style="stroke: #383838; stroke-width: 1.0; stroke-dasharray: 5.0,5.0;" x1="495" x2="495" y1="64.5938" y2="230.2578"/><line style="stroke: #383838; stroke-width: 1.0; stroke-dasharray: 5.0,5.0;" x1="623" x2="623" y1="64.5938" y2="230.2578"/><rect fill="#F8F8F8" height="30.2969" style="stroke: #383838; stroke-width: 1.5;" width="126" x="8" y="33.2969"/><text fill="#000000" font-family="Courier" font-size="14" lengthAdjust="spacingAndGlyphs" textLength="112" x="15" y="53.292">User Interface</text><rect fill="#F8F8F8" height="30.2969" style="stroke: #383838; stroke-width: 1.5;" width="126" x="8" y="229.2578"/><text fill="#000000" font-family="Courier" font-size="14" lengthAdjust="spacingAndGlyphs" textLength="112" x="15" y="249.2529">User Interface</text><rect fill="#F8F8F8" height="30.2969" style="stroke: #383838; stroke-width: 1.5;" width="182" x="144" y="33.2969"/><text fill="#000000" font-family="Courier" font-size="14" lengthAdjust="spacingAndGlyphs" textLength="168" x="151" y="53.292">Authentication System</text><rect fill="#F8F8F8" height="30.2969" style="stroke: #383838; stroke-width: 1.5;" width="182" x="144" y="229.2578"/><text fill="#000000" font-family="Courier" font-size="14" lengthAdjust="spacingAndGlyphs" textLength="168" x="151" y="249.2529">Authentication System</text><rect fill="#F8F8F8" height="30.2969" style="stroke: #383838; stroke-width: 1.5;" width="70" x="336" y="33.2969"/><text fill="#000000" font-family="Courier" font-size="14" lengthAdjust="spacingAndGlyphs" textLength="56" x="343" y="53.292">Display</text><rect fill="#F8F8F8" height="30.2969" style="stroke: #383838; stroke-width: 1.5;" width="70" x="336" y="229.2578"/><text fill="#000000" font-family="Courier" font-size="14" lengthAdjust="spacingAndGlyphs" textLength="56" x="343" y="249.2529">Display</text><rect fill="#F8F8F8" height="30.2969" style="stroke: #383838; stroke-width: 1.5;" width="158" x="416" y="33.2969"/><text fill="#000000" font-family="Courier" font-size="14" lengthAdjust="spacingAndGlyphs" textLength="144" x="423" y="53.292">Flask JWT Extended</text><rect fill="#F8F8F8" height="30.2969" style="stroke: #383838; stroke-width: 1.5;" width="158" x="416" y="229.2578"/><text fill="#000000" font-family="Courier" font-size="14" lengthAdjust="spacingAndGlyphs" textLength="144" x="423" y="249.2529">Flask JWT Extended</text><rect fill="#F8F8F8" height="30.2969" style="stroke: #383838; stroke-width: 1.5;" width="78" x="584" y="33.2969"/><text fill="#000000" font-family="Courier" font-size="14" lengthAdjust="spacingAndGlyphs" textLength="64" x="591" y="53.292">Database</text><rect fill="#F8F8F8" height="30.2969" style="stroke: #383838; stroke-width: 1.5;" width="78" x="584" y="229.2578"/><text fill="#000000" font-family="Courier" font-size="14" lengthAdjust="spacingAndGlyphs" textLength="64" x="591" y="249.2529">Database</text><polygon fill="#383838" points="223,91.7266,233,95.7266,223,99.7266,227,95.7266" style="stroke: #383838; stroke-width: 1.0;"/><line style="stroke: #383838; stroke-width: 1.0;" x1="71" x2="229" y1="95.7266" y2="95.7266"/><text fill="#000000" font-family="Courier" font-size="13" lengthAdjust="spacingAndGlyphs" textLength="96" x="78" y="90.6606">Authenticate</text><polygon fill="#383838" points="611,120.8594,621,124.8594,611,128.8594,615,124.8594" style="stroke: #383838; stroke-width: 1.0;"/><line style="stroke: #383838; stroke-width: 1.0;" x1="235" x2="617" y1="124.8594" y2="124.8594"/><text fill="#000000" font-family="Courier" font-size="13" lengthAdjust="spacingAndGlyphs" textLength="64" x="242" y="119.7935">Get User</text><polygon fill="#383838" points="483,149.9922,493,153.9922,483,157.9922,487,153.9922" style="stroke: #383838; stroke-width: 1.0;"/><line style="stroke: #383838; stroke-width: 1.0;" x1="235" x2="489" y1="153.9922" y2="153.9922"/><text fill="#000000" font-family="Courier" font-size="13" lengthAdjust="spacingAndGlyphs" textLength="96" x="242" y="148.9263">Create Token</text><polygon fill="#383838" points="359,179.125,369,183.125,359,187.125,363,183.125" style="stroke: #383838; stroke-width: 1.0;"/><line style="stroke: #383838; stroke-width: 1.0;" x1="71" x2="365" y1="183.125" y2="183.125"/><text fill="#000000" font-family="Courier" font-size="13" lengthAdjust="spacingAndGlyphs" textLength="104" x="78" y="178.0591">Read Articles</text><polygon fill="#383838" points="611,208.2578,621,212.2578,611,216.2578,615,212.2578" style="stroke: #383838; stroke-width: 1.0;"/><line style="stroke: #383838; stroke-width: 1.0;" x1="371" x2="617" y1="212.2578" y2="212.2578"/><text fill="#000000" font-family="Courier" font-size="13" lengthAdjust="spacingAndGlyphs" textLength="112" x="378" y="207.1919">Fetch Articles</text></g></svg>