<?xml version="1.0" encoding="UTF-8" standalone="no"?><svg xmlns="http://www.w3.org/2000/svg" xmlns:xlink="http://www.w3.org/1999/xlink" contentScriptType="application/ecmascript" contentStyleType="text/css" height="392px" preserveAspectRatio="none" style="width:712px;height:392px;" version="1.1" viewBox="0 0 712 392" width="712px" zoomAndPan="magnify"><defs/><g><rect fill="#FFFFFF" height="62.5938" style="stroke: #444444; stroke-width: 1.0; stroke-dasharray: 7.0,7.0;" width="165" x="263" y="189"/><text fill="#000000" font-family="sans-serif" font-size="0" font-style="italic" lengthAdjust="spacingAndGlyphs" textLength="0" x="345.5" y="199">«boundary»</text><text fill="#444444" font-family="sans-serif" font-size="16" font-weight="bold" lengthAdjust="spacingAndGlyphs" textLength="145" x="273" y="223.8516">Seismo Scraping</text><text fill="#444444" font-family="sans-serif" font-size="12" lengthAdjust="spacingAndGlyphs" textLength="55" x="318" y="238.7637">[System]</text><rect fill="#08427B" height="103.8125" style="stroke: #073B6F; stroke-width: 1.5;" width="215" x="6" y="8"/><text fill="#FFFFFF" font-family="sans-serif" font-size="12" font-style="italic" lengthAdjust="spacingAndGlyphs" textLength="57" x="85" y="29.1387">«person»</text><text fill="#FFFFFF" font-family="sans-serif" font-size="16" font-weight="bold" lengthAdjust="spacingAndGlyphs" textLength="189" x="16" y="46.8203">Early Detection Team</text><text fill="#FFFFFF" font-family="sans-serif" font-size="16" font-weight="bold" lengthAdjust="spacingAndGlyphs" textLength="73" x="77" y="65.4453">Member</text><text fill="#FFFFFF" font-family="sans-serif" font-size="14" lengthAdjust="spacingAndGlyphs" textLength="0" x="115.5" y="82.2139"/><text fill="#FFFFFF" font-family="sans-serif" font-size="14" lengthAdjust="spacingAndGlyphs" textLength="0" x="115.5" y="98.5107"/><rect fill="#08427B" height="103.8125" style="stroke: #073B6F; stroke-width: 1.5;" width="178" x="256.5" y="8"/><text fill="#FFFFFF" font-family="sans-serif" font-size="12" font-style="italic" lengthAdjust="spacingAndGlyphs" textLength="57" x="317" y="29.1387">«person»</text><text fill="#FFFFFF" font-family="sans-serif" font-size="16" font-weight="bold" lengthAdjust="spacingAndGlyphs" textLength="152" x="266.5" y="46.8203">Risk Assessment</text><text fill="#FFFFFF" font-family="sans-serif" font-size="16" font-weight="bold" lengthAdjust="spacingAndGlyphs" textLength="127" x="282" y="65.4453">Team Member</text><text fill="#FFFFFF" font-family="sans-serif" font-size="14" lengthAdjust="spacingAndGlyphs" textLength="0" x="347.5" y="82.2139"/><text fill="#FFFFFF" font-family="sans-serif" font-size="14" lengthAdjust="spacingAndGlyphs" textLength="0" x="347.5" y="98.5107"/><rect fill="#999999" height="71.2188" style="stroke: #8A8A8A; stroke-width: 1.5;" width="140" x="469.5" y="24.5"/><text fill="#FFFFFF" font-family="sans-serif" font-size="12" font-style="italic" lengthAdjust="spacingAndGlyphs" textLength="115" x="482" y="45.6387">«external_system»</text><text fill="#FFFFFF" font-family="sans-serif" font-size="16" font-weight="bold" lengthAdjust="spacingAndGlyphs" textLength="114" x="479.5" y="63.3203">Seismo Infos</text><text fill="#FFFFFF" font-family="sans-serif" font-size="16" font-weight="bold" lengthAdjust="spacingAndGlyphs" textLength="99" x="490" y="81.9453">Newsletter</text><rect fill="#999999" height="52.5938" style="stroke: #8A8A8A; stroke-width: 1.5;" width="135" x="10" y="329"/><text fill="#FFFFFF" font-family="sans-serif" font-size="12" font-style="italic" lengthAdjust="spacingAndGlyphs" textLength="115" x="20" y="350.1387">«external_system»</text><text fill="#FFFFFF" font-family="sans-serif" font-size="16" font-weight="bold" lengthAdjust="spacingAndGlyphs" textLength="66" x="44.5" y="367.8203">fda.gov</text><rect fill="#999999" height="52.5938" style="stroke: #8A8A8A; stroke-width: 1.5;" width="149" x="180" y="329"/><text fill="#FFFFFF" font-family="sans-serif" font-size="12" font-style="italic" lengthAdjust="spacingAndGlyphs" textLength="115" x="197" y="350.1387">«external_system»</text><text fill="#FFFFFF" font-family="sans-serif" font-size="16" font-weight="bold" lengthAdjust="spacingAndGlyphs" textLength="129" x="190" y="367.8203">eurekalert.org</text><rect fill="#999999" height="52.5938" style="stroke: #8A8A8A; stroke-width: 1.5;" width="146" x="364.5" y="329"/><text fill="#FFFFFF" font-family="sans-serif" font-size="12" font-style="italic" lengthAdjust="spacingAndGlyphs" textLength="115" x="380" y="350.1387">«external_system»</text><text fill="#FFFFFF" font-family="sans-serif" font-size="16" font-weight="bold" lengthAdjust="spacingAndGlyphs" textLength="126" x="374.5" y="367.8203">foodaktuell.ch</text><rect fill="#999999" height="52.5938" style="stroke: #8A8A8A; stroke-width: 1.5;" width="155" x="546" y="329"/><text fill="#FFFFFF" font-family="sans-serif" font-size="12" font-style="italic" lengthAdjust="spacingAndGlyphs" textLength="115" x="566" y="350.1387">«external_system»</text><text fill="#FFFFFF" font-family="sans-serif" font-size="16" font-weight="bold" lengthAdjust="spacingAndGlyphs" textLength="135" x="556" y="367.8203">other websites</text><path d="M169.61,112.15 C188.32,128.05 209.7,145.05 230.5,159 C244.93,168.68 261.09,178.01 276.63,186.33 " fill="none" id="user_s-&gt;boundary" style="stroke: #666666; stroke-width: 1.0;"/><polygon fill="#666666" points="281.43,188.88,275.3555,181.1275,277.0135,186.536,271.6051,188.1939,281.43,188.88" style="stroke: #666666; stroke-width: 1.0;"/><text fill="#666666" font-family="sans-serif" font-size="13" font-weight="bold" lengthAdjust="spacingAndGlyphs" textLength="105" x="231.5" y="155.0669">Read and Edit</text><path d="M345.5,112.02 C345.5,135.38 345.5,162.51 345.5,183.66 " fill="none" id="user_p-&gt;boundary" style="stroke: #666666; stroke-width: 1.0;"/><polygon fill="#666666" points="345.5,188.9,349.5,179.9,345.5,183.9,341.5,179.9,345.5,188.9" style="stroke: #666666; stroke-width: 1.0;"/><text fill="#666666" font-family="sans-serif" font-size="13" font-weight="bold" lengthAdjust="spacingAndGlyphs" textLength="75" x="346.5" y="155.0669">Read Only</text><path d="M503.08,95.64 C482.32,114.9 455.52,138.95 430.5,159 C419.29,167.98 406.88,177.2 395.08,185.64 " fill="none" id="seismo-&gt;boundary" style="stroke: #666666; stroke-width: 1.0;"/><polygon fill="#666666" points="390.76,188.72,400.4112,186.7566,394.8325,185.8192,395.7699,180.2406,390.76,188.72" style="stroke: #666666; stroke-width: 1.0;"/><text fill="#666666" font-family="sans-serif" font-size="13" font-weight="bold" lengthAdjust="spacingAndGlyphs" textLength="103" x="449.5" y="155.0669">Needs Output</text><path d="M262.96,233.45 C222.38,242.18 174.22,257.03 136.5,282 C120.07,292.88 105.95,309.75 95.65,324.48 " fill="none" id="boundary-&gt;fda" style="stroke: #666666; stroke-width: 1.0;"/><polygon fill="#666666" points="92.57,328.98,100.9566,323.8162,95.396,324.8552,94.3569,319.2946,92.57,328.98" style="stroke: #666666; stroke-width: 1.0;"/><text fill="#666666" font-family="sans-serif" font-size="13" font-weight="bold" lengthAdjust="spacingAndGlyphs" textLength="119" x="137.5" y="295.0669">Scrapes Articles</text><path d="M300.1,252.32 C290.13,260.91 280.48,270.96 273.5,282 C265.64,294.43 261.02,310.01 258.3,323.54 " fill="none" id="boundary-&gt;eurekalert" style="stroke: #666666; stroke-width: 1.0;"/><polygon fill="#666666" points="257.32,328.81,262.8987,320.6935,258.2345,323.8943,255.0337,319.2302,257.32,328.81" style="stroke: #666666; stroke-width: 1.0;"/><text fill="#666666" font-family="sans-serif" font-size="13" font-weight="bold" lengthAdjust="spacingAndGlyphs" textLength="119" x="274.5" y="295.0669">Scrapes Articles</text><path d="M374.69,252.11 C382.85,261.36 391.42,271.79 398.5,282 C407.64,295.18 416.26,310.73 423.06,324.05 " fill="none" id="boundary-&gt;foodaktuell" style="stroke: #666666; stroke-width: 1.0;"/><polygon fill="#666666" points="425.48,328.85,425.0076,319.0125,423.2325,324.3836,417.8614,322.6085,425.48,328.85" style="stroke: #666666; stroke-width: 1.0;"/><text fill="#666666" font-family="sans-serif" font-size="13" font-weight="bold" lengthAdjust="spacingAndGlyphs" textLength="119" x="408.5" y="295.0669">Scrapes Articles</text><path d="M428.26,240.17 C462.95,249.88 502.94,263.63 536.5,282 C557.49,293.49 578.18,310.43 594.12,325.06 " fill="none" id="boundary-&gt;..." style="stroke: #666666; stroke-width: 1.0;"/><polygon fill="#666666" points="598.06,328.72,594.1745,319.67,594.3915,325.3227,588.7388,325.5396,598.06,328.72" style="stroke: #666666; stroke-width: 1.0;"/><text fill="#666666" font-family="sans-serif" font-size="13" font-weight="bold" lengthAdjust="spacingAndGlyphs" textLength="119" x="563.5" y="295.0669">Scrapes Articles</text></g></svg>