<?xml version="1.0" encoding="UTF-8" standalone="no"?><svg xmlns="http://www.w3.org/2000/svg" xmlns:xlink="http://www.w3.org/1999/xlink" contentScriptType="application/ecmascript" contentStyleType="text/css" height="868px" preserveAspectRatio="none" style="width:999px;height:868px;" version="1.1" viewBox="0 0 999 868" width="999px" zoomAndPan="magnify"><defs><filter height="300%" id="fpcj390d8j0jv" width="300%" x="-1" y="-1"><feGaussianBlur result="blurOut" stdDeviation="2.0"/><feColorMatrix in="blurOut" result="blurOut2" type="matrix" values="0 0 0 0 0 0 0 0 0 0 0 0 0 0 0 0 0 0 .4 0"/><feOffset dx="4.0" dy="4.0" in="blurOut2" result="blurOut3"/><feBlend in="SourceGraphic" in2="blurOut3" mode="normal"/></filter></defs><g><polygon fill="#FFFFFF" filter="url(#fpcj390d8j0jv)" points="456,34,466,24,604,24,604,106,594,116,456,116,456,34" style="stroke: #000000; stroke-width: 1.5;"/><line style="stroke: #000000; stroke-width: 1.5;" x1="594" x2="603" y1="34" y2="25"/><line style="stroke: #000000; stroke-width: 1.5;" x1="456" x2="594" y1="34" y2="34"/><line style="stroke: #000000; stroke-width: 1.5;" x1="594" x2="594" y1="34" y2="116"/><text fill="#000000" font-family="sans-serif" font-size="14" font-weight="bold" lengthAdjust="spacingAndGlyphs" textLength="72" x="490" y="49.9951">Frontend</text><polygon fill="#FFFFFF" filter="url(#fpcj390d8j0jv)" points="470,175,480,165,591,165,591,247,581,257,470,257,470,175" style="stroke: #000000; stroke-width: 1.5;"/><line style="stroke: #000000; stroke-width: 1.5;" x1="581" x2="590" y1="175" y2="166"/><line style="stroke: #000000; stroke-width: 1.5;" x1="470" x2="581" y1="175" y2="175"/><line style="stroke: #000000; stroke-width: 1.5;" x1="581" x2="581" y1="175" y2="257"/><text fill="#000000" font-family="sans-serif" font-size="14" font-weight="bold" lengthAdjust="spacingAndGlyphs" textLength="45" x="504" y="190.9951">Proxy</text><polygon fill="#FFFFFF" filter="url(#fpcj390d8j0jv)" points="22,316,32,306,583,306,583,687,573,697,22,697,22,316" style="stroke: #000000; stroke-width: 1.5;"/><line style="stroke: #000000; stroke-width: 1.5;" x1="573" x2="582" y1="316" y2="307"/><line style="stroke: #000000; stroke-width: 1.5;" x1="22" x2="573" y1="316" y2="316"/><line style="stroke: #000000; stroke-width: 1.5;" x1="573" x2="573" y1="316" y2="697"/><text fill="#000000" font-family="sans-serif" font-size="14" font-weight="bold" lengthAdjust="spacingAndGlyphs" textLength="166" x="215.5" y="331.9951">Articles Microservice</text><rect fill="#FFFFFF" filter="url(#fpcj390d8j0jv)" height="184" style="stroke: #000000; stroke-width: 1.5;" width="280" x="279" y="354"/><rect fill="#FFFFFF" height="10" style="stroke: #000000; stroke-width: 1.5;" width="15" x="539" y="359"/><rect fill="#FFFFFF" height="2" style="stroke: #000000; stroke-width: 1.5;" width="4" x="537" y="361"/><rect fill="#FFFFFF" height="2" style="stroke: #000000; stroke-width: 1.5;" width="4" x="537" y="365"/><text fill="#000000" font-family="sans-serif" font-size="14" font-weight="bold" lengthAdjust="spacingAndGlyphs" textLength="62" x="388" y="379.9951">Scraper</text><path d="M156,581 C156,571 215,571 215,571 C215,571 274,571 274,581 L274,663 C274,673 215,673 215,673 C215,673 156,673 156,663 L156,581 " fill="#FFFFFF" filter="url(#fpcj390d8j0jv)" style="stroke: #000000; stroke-width: 1.5;"/><path d="M156,581 C156,591 215,591 215,591 C215,591 274,591 274,581 " fill="none" style="stroke: #000000; stroke-width: 1.5;"/><text fill="#000000" font-family="sans-serif" font-size="14" font-weight="bold" lengthAdjust="spacingAndGlyphs" textLength="73" x="178.5" y="605.9951">Database</text><polygon fill="#FFFFFF" filter="url(#fpcj390d8j0jv)" points="607,359,617,349,977,349,977,846,967,856,607,856,607,359" style="stroke: #000000; stroke-width: 1.5;"/><line style="stroke: #000000; stroke-width: 1.5;" x1="967" x2="976" y1="359" y2="350"/><line style="stroke: #000000; stroke-width: 1.5;" x1="607" x2="967" y1="359" y2="359"/><line style="stroke: #000000; stroke-width: 1.5;" x1="967" x2="967" y1="359" y2="856"/><text fill="#000000" font-family="sans-serif" font-size="14" font-weight="bold" lengthAdjust="spacingAndGlyphs" textLength="277" x="649.5" y="374.9951">Account Management Microservice</text><path d="M687,740 C687,730 779,730 779,730 C779,730 871,730 871,740 L871,822 C871,832 779,832 779,832 C779,832 687,832 687,822 L687,740 " fill="#FFFFFF" filter="url(#fpcj390d8j0jv)" style="stroke: #000000; stroke-width: 1.5;"/><path d="M687,740 C687,750 779,750 779,750 C779,750 871,750 871,740 " fill="none" style="stroke: #000000; stroke-width: 1.5;"/><text fill="#000000" font-family="sans-serif" font-size="14" font-weight="bold" lengthAdjust="spacingAndGlyphs" textLength="152" x="703" y="764.9951">Accounts Database</text><rect fill="#FEFECE" filter="url(#fpcj390d8j0jv)" height="36.2969" style="stroke: #A80036; stroke-width: 1.5;" width="116" x="472" y="64"/><rect fill="#FEFECE" height="5" style="stroke: #A80036; stroke-width: 1.5;" width="10" x="467" y="69"/><rect fill="#FEFECE" height="5" style="stroke: #A80036; stroke-width: 1.5;" width="10" x="467" y="90.2969"/><text fill="#000000" font-family="sans-serif" font-size="14" lengthAdjust="spacingAndGlyphs" textLength="96" x="482" y="86.9951">User Interface</text><rect fill="#FEFECE" filter="url(#fpcj390d8j0jv)" height="36.2969" style="stroke: #A80036; stroke-width: 1.5;" width="57" x="501.5" y="205"/><rect fill="#FEFECE" height="5" style="stroke: #A80036; stroke-width: 1.5;" width="10" x="496.5" y="210"/><rect fill="#FEFECE" height="5" style="stroke: #A80036; stroke-width: 1.5;" width="10" x="496.5" y="231.2969"/><text fill="#000000" font-family="sans-serif" font-size="14" lengthAdjust="spacingAndGlyphs" textLength="37" x="511.5" y="227.9951">Proxy</text><rect fill="#FEFECE" filter="url(#fpcj390d8j0jv)" height="36.2969" style="stroke: #A80036; stroke-width: 1.5;" width="95" x="164.5" y="389"/><rect fill="#FEFECE" height="5" style="stroke: #A80036; stroke-width: 1.5;" width="10" x="159.5" y="394"/><rect fill="#FEFECE" height="5" style="stroke: #A80036; stroke-width: 1.5;" width="10" x="159.5" y="415.2969"/><text fill="#000000" font-family="sans-serif" font-size="14" lengthAdjust="spacingAndGlyphs" textLength="75" x="174.5" y="411.9951">Service API</text><rect fill="#FEFECE" filter="url(#fpcj390d8j0jv)" height="36.2969" style="stroke: #A80036; stroke-width: 1.5;" width="94" x="38" y="486"/><rect fill="#FEFECE" height="5" style="stroke: #A80036; stroke-width: 1.5;" width="10" x="33" y="491"/><rect fill="#FEFECE" height="5" style="stroke: #A80036; stroke-width: 1.5;" width="10" x="33" y="512.2969"/><text fill="#000000" font-family="sans-serif" font-size="14" lengthAdjust="spacingAndGlyphs" textLength="74" x="48" y="508.9951">Display API</text><rect fill="#FEFECE" filter="url(#fpcj390d8j0jv)" height="36.2969" style="stroke: #A80036; stroke-width: 1.5;" width="96" x="167" y="486"/><rect fill="#FEFECE" height="5" style="stroke: #A80036; stroke-width: 1.5;" width="10" x="162" y="491"/><rect fill="#FEFECE" height="5" style="stroke: #A80036; stroke-width: 1.5;" width="10" x="162" y="512.2969"/><text fill="#000000" font-family="sans-serif" font-size="14" lengthAdjust="spacingAndGlyphs" textLength="76" x="177" y="508.9951">Actions API</text><rect fill="#FEFECE" filter="url(#fpcj390d8j0jv)" height="36.2969" style="stroke: #A80036; stroke-width: 1.5;" width="73" x="340.5" y="486"/><rect fill="#FEFECE" height="5" style="stroke: #A80036; stroke-width: 1.5;" width="10" x="335.5" y="491"/><rect fill="#FEFECE" height="5" style="stroke: #A80036; stroke-width: 1.5;" width="10" x="335.5" y="512.2969"/><text fill="#000000" font-family="sans-serif" font-size="14" lengthAdjust="spacingAndGlyphs" textLength="53" x="350.5" y="508.9951">Scraper</text><rect fill="#FEFECE" filter="url(#fpcj390d8j0jv)" height="36.2969" style="stroke: #A80036; stroke-width: 1.5;" width="248" x="295" y="389"/><rect fill="#FEFECE" height="5" style="stroke: #A80036; stroke-width: 1.5;" width="10" x="290" y="394"/><rect fill="#FEFECE" height="5" style="stroke: #A80036; stroke-width: 1.5;" width="10" x="290" y="415.2969"/><text fill="#000000" font-family="sans-serif" font-size="14" lengthAdjust="spacingAndGlyphs" textLength="228" x="305" y="411.9951">Json Source Websites Repository</text><rect fill="#FEFECE" filter="url(#fpcj390d8j0jv)" height="36.2969" style="stroke: #A80036; stroke-width: 1.5;" width="86" x="172" y="621"/><rect fill="#FEFECE" height="5" style="stroke: #A80036; stroke-width: 1.5;" width="10" x="167" y="626"/><rect fill="#FEFECE" height="5" style="stroke: #A80036; stroke-width: 1.5;" width="10" x="167" y="647.2969"/><text fill="#000000" font-family="sans-serif" font-size="14" lengthAdjust="spacingAndGlyphs" textLength="66" x="182" y="643.9951">Database</text><rect fill="#FEFECE" filter="url(#fpcj390d8j0jv)" height="36.2969" style="stroke: #A80036; stroke-width: 1.5;" width="95" x="663.5" y="389"/><rect fill="#FEFECE" height="5" style="stroke: #A80036; stroke-width: 1.5;" width="10" x="658.5" y="394"/><rect fill="#FEFECE" height="5" style="stroke: #A80036; stroke-width: 1.5;" width="10" x="658.5" y="415.2969"/><text fill="#000000" font-family="sans-serif" font-size="14" lengthAdjust="spacingAndGlyphs" textLength="75" x="673.5" y="411.9951">Service API</text><rect fill="#FEFECE" filter="url(#fpcj390d8j0jv)" height="36.2969" style="stroke: #A80036; stroke-width: 1.5;" width="120" x="623" y="621"/><rect fill="#FEFECE" height="5" style="stroke: #A80036; stroke-width: 1.5;" width="10" x="618" y="626"/><rect fill="#FEFECE" height="5" style="stroke: #A80036; stroke-width: 1.5;" width="10" x="618" y="647.2969"/><text fill="#000000" font-family="sans-serif" font-size="14" lengthAdjust="spacingAndGlyphs" textLength="100" x="633" y="643.9951">Authentication</text><rect fill="#FEFECE" filter="url(#fpcj390d8j0jv)" height="36.2969" style="stroke: #A80036; stroke-width: 1.5;" width="132" x="719" y="486"/><rect fill="#FEFECE" height="5" style="stroke: #A80036; stroke-width: 1.5;" width="10" x="714" y="491"/><rect fill="#FEFECE" height="5" style="stroke: #A80036; stroke-width: 1.5;" width="10" x="714" y="512.2969"/><text fill="#000000" font-family="sans-serif" font-size="14" lengthAdjust="spacingAndGlyphs" textLength="112" x="729" y="508.9951">Password Reset</text><rect fill="#FEFECE" filter="url(#fpcj390d8j0jv)" height="36.2969" style="stroke: #A80036; stroke-width: 1.5;" width="145" x="815.5" y="621"/><rect fill="#FEFECE" height="5" style="stroke: #A80036; stroke-width: 1.5;" width="10" x="810.5" y="626"/><rect fill="#FEFECE" height="5" style="stroke: #A80036; stroke-width: 1.5;" width="10" x="810.5" y="647.2969"/><text fill="#000000" font-family="sans-serif" font-size="14" lengthAdjust="spacingAndGlyphs" textLength="125" x="825.5" y="643.9951">Password Change</text><rect fill="#FEFECE" filter="url(#fpcj390d8j0jv)" height="36.2969" style="stroke: #A80036; stroke-width: 1.5;" width="151" x="703.5" y="780"/><rect fill="#FEFECE" height="5" style="stroke: #A80036; stroke-width: 1.5;" width="10" x="698.5" y="785"/><rect fill="#FEFECE" height="5" style="stroke: #A80036; stroke-width: 1.5;" width="10" x="698.5" y="806.2969"/><text fill="#000000" font-family="sans-serif" font-size="14" lengthAdjust="spacingAndGlyphs" textLength="131" x="713.5" y="802.9951">Accound Database</text><path d="M189,425.2 C165.98,442.42 130.78,468.75 107.83,485.92 " fill="none" id="API-DAPI" style="stroke: #A80036; stroke-width: 1.0;"/><path d="M212.55,425.42 C213.09,442.57 213.91,468.58 214.45,485.69 " fill="none" id="API-AAPI" style="stroke: #A80036; stroke-width: 1.0;"/><path d="M708.9,425.29 C703.69,468.02 690.28,578.22 685.09,620.83 " fill="none" id="GAPI-A" style="stroke: #A80036; stroke-width: 1.0;"/><path d="M724.57,425.42 C737.92,442.57 758.19,468.58 771.51,485.69 " fill="none" id="GAPI-PR" style="stroke: #A80036; stroke-width: 1.0;"/><path d="M758.73,418.56 C795.03,429.21 843.02,449.48 869,486 C898.13,526.96 894.61,590.29 890.76,620.63 " fill="none" id="GAPI-PC" style="stroke: #A80036; stroke-width: 1.0;"/><path d="M798.25,522.12 C818.03,547.65 855.05,595.45 874.8,620.95 " fill="none" id="PR-PC" style="stroke: #A80036; stroke-width: 1.0;"/><path d="M530,100.04 C530,126.72 530,178.05 530,204.82 " fill="none" id="UI-P" style="stroke: #A80036; stroke-width: 1.0;"/><text fill="#000000" font-family="sans-serif" font-size="13" lengthAdjust="spacingAndGlyphs" textLength="41" x="531" y="145.0669">HTTPS</text><path d="M501.46,225.86 C451.56,230.43 347.3,245.96 279,298 C247.76,321.8 227.57,364.72 218.17,388.66 " fill="none" id="P-API" style="stroke: #A80036; stroke-width: 1.0;"/><text fill="#000000" font-family="sans-serif" font-size="13" lengthAdjust="spacingAndGlyphs" textLength="41" x="315" y="286.0669">HTTPS</text><path d="M547.03,241.12 C581.53,275.81 659.32,354.03 693.89,388.79 " fill="none" id="P-GAPI" style="stroke: #A80036; stroke-width: 1.0;"/><text fill="#000000" font-family="sans-serif" font-size="13" lengthAdjust="spacingAndGlyphs" textLength="41" x="594" y="286.0669">HTTPS</text><path d="M411.3,425.42 C403.72,442.57 392.22,468.58 384.65,485.69 " fill="none" id="JSON-SC" style="stroke: #A80036; stroke-width: 1.0;"/><path d="M101.73,522.12 C126.69,547.65 173.41,595.45 198.34,620.95 " fill="none" id="DAPI-DB" style="stroke: #A80036; stroke-width: 1.0;"/><path d="M215,522.12 C215,547.65 215,595.45 215,620.95 " fill="none" id="AAPI-DB" style="stroke: #A80036; stroke-width: 1.0;"/><path d="M693.46,657.1 C711.92,687.3 750.1,749.74 768.56,779.92 " fill="none" id="A-ADB" style="stroke: #A80036; stroke-width: 1.0;"/><path d="M784.64,522.39 C783.58,574.33 780.42,727.88 779.36,779.7 " fill="none" id="PR-ADB" style="stroke: #A80036; stroke-width: 1.0;"/><path d="M876.13,657.1 C855.16,687.3 811.81,749.74 790.86,779.92 " fill="none" id="PC-ADB" style="stroke: #A80036; stroke-width: 1.0;"/><path d="M361.2,522.34 C354.06,529.87 345.36,538.64 337,546 C305.14,574.05 265.45,602.97 240.16,620.72 " fill="none" id="SC-DB" style="stroke: #A80036; stroke-width: 1.0;"/></g></svg>