<?xml version="1.0" encoding="UTF-8" standalone="no"?><svg xmlns="http://www.w3.org/2000/svg" xmlns:xlink="http://www.w3.org/1999/xlink" contentScriptType="application/ecmascript" contentStyleType="text/css" height="491px" preserveAspectRatio="none" style="width:2018px;height:491px;" version="1.1" viewBox="0 0 2018 491" width="2018px" zoomAndPan="magnify"><defs/><g><rect fill="#F8F8F8" height="36.2969" style="stroke: #000000; stroke-width: 1.5;" width="148" x="1072" y="218"/><text fill="#000000" font-family="Courier" font-size="14" lengthAdjust="spacingAndGlyphs" textLength="128" x="1082" y="240.9951">Display Articles</text><rect fill="#F8F8F8" height="36.2969" style="stroke: #000000; stroke-width: 1.5;" width="204" x="1222" y="331"/><text fill="#000000" font-family="Courier" font-size="14" lengthAdjust="spacingAndGlyphs" textLength="184" x="1232" y="353.9951">Display Recent Articles</text><rect fill="#F8F8F8" height="36.2969" style="stroke: #000000; stroke-width: 1.5;" width="204" x="943" y="444"/><text fill="#000000" font-family="Courier" font-size="14" lengthAdjust="spacingAndGlyphs" textLength="184" x="953" y="466.9951">Display Graded Articles</text><rect fill="#F8F8F8" height="36.2969" style="stroke: #000000; stroke-width: 1.5;" width="212" x="904" y="331"/><text fill="#000000" font-family="Courier" font-size="14" lengthAdjust="spacingAndGlyphs" textLength="192" x="914" y="353.9951">Display Deleted Articles</text><rect fill="#F8F8F8" height="36.2969" style="stroke: #000000; stroke-width: 1.5;" width="68" x="539" y="105"/><text fill="#000000" font-family="Courier" font-size="14" lengthAdjust="spacingAndGlyphs" textLength="48" x="549" y="127.9951">Action</text><rect fill="#F8F8F8" height="36.2969" style="stroke: #000000; stroke-width: 1.5;" width="68" x="646" y="218"/><text fill="#000000" font-family="Courier" font-size="14" lengthAdjust="spacingAndGlyphs" textLength="48" x="656" y="240.9951">Filter</text><rect fill="#F8F8F8" height="36.2969" style="stroke: #000000; stroke-width: 1.5;" width="52" x="817" y="331"/><text fill="#000000" font-family="Courier" font-size="14" lengthAdjust="spacingAndGlyphs" textLength="32" x="827" y="353.9951">Date</text><rect fill="#F8F8F8" height="36.2969" style="stroke: #000000; stroke-width: 1.5;" width="60" x="722" y="331"/><text fill="#000000" font-family="Courier" font-size="14" lengthAdjust="spacingAndGlyphs" textLength="40" x="732" y="353.9951">Grade</text><rect fill="#F8F8F8" height="36.2969" style="stroke: #000000; stroke-width: 1.5;" width="100" x="412" y="331"/><text fill="#000000" font-family="Courier" font-size="14" lengthAdjust="spacingAndGlyphs" textLength="80" x="422" y="353.9951">Plain Text</text><rect fill="#F8F8F8" height="36.2969" style="stroke: #000000; stroke-width: 1.5;" width="140" x="547" y="331"/><text fill="#000000" font-family="Courier" font-size="14" lengthAdjust="spacingAndGlyphs" textLength="120" x="557" y="353.9951">Source Websites</text><rect fill="#F8F8F8" height="36.2969" style="stroke: #000000; stroke-width: 1.5;" width="140" x="392" y="444"/><text fill="#000000" font-family="Courier" font-size="14" lengthAdjust="spacingAndGlyphs" textLength="120" x="402" y="466.9951">Create Keywords</text><rect fill="#F8F8F8" height="36.2969" style="stroke: #000000; stroke-width: 1.5;" width="68" x="302" y="218"/><text fill="#000000" font-family="Courier" font-size="14" lengthAdjust="spacingAndGlyphs" textLength="48" x="312" y="240.9951">Rating</text><rect fill="#F8F8F8" height="36.2969" style="stroke: #000000; stroke-width: 1.5;" width="132" x="245" y="331"/><text fill="#000000" font-family="Courier" font-size="14" lengthAdjust="spacingAndGlyphs" textLength="112" x="255" y="353.9951">Out of 5 stars</text><rect fill="#F8F8F8" height="36.2969" style="stroke: #000000; stroke-width: 1.5;" width="204" x="6" y="331"/><text fill="#000000" font-family="Courier" font-size="14" lengthAdjust="spacingAndGlyphs" textLength="184" x="16" y="353.9951">On a scale form 1 to 10</text><rect fill="#F8F8F8" height="36.2969" style="stroke: #000000; stroke-width: 1.5;" width="132" x="479" y="218"/><text fill="#000000" font-family="Courier" font-size="14" lengthAdjust="spacingAndGlyphs" textLength="112" x="489" y="240.9951">Delete Article</text><rect fill="#F8F8F8" height="36.2969" style="stroke: #000000; stroke-width: 1.5;" width="140" x="749" y="218"/><text fill="#000000" font-family="Courier" font-size="14" lengthAdjust="spacingAndGlyphs" textLength="120" x="759" y="240.9951">Recover Article</text><rect fill="#F8F8F8" height="36.2969" style="stroke: #000000; stroke-width: 1.5;" width="132" x="1227" y="105"/><text fill="#000000" font-family="Courier" font-size="14" lengthAdjust="spacingAndGlyphs" textLength="112" x="1237" y="127.9951">Authentication</text><rect fill="#F8F8F8" height="36.2969" style="stroke: #000000; stroke-width: 1.5;" width="76" x="1255" y="218"/><text fill="#000000" font-family="Courier" font-size="14" lengthAdjust="spacingAndGlyphs" textLength="56" x="1265" y="240.9951">Session</text><rect fill="#F8F8F8" height="36.2969" style="stroke: #000000; stroke-width: 1.5;" width="108" x="1366" y="218"/><text fill="#000000" font-family="Courier" font-size="14" lengthAdjust="spacingAndGlyphs" textLength="88" x="1376" y="240.9951">Token Based</text><rect fill="#F8F8F8" height="36.2969" style="stroke: #000000; stroke-width: 1.5;" width="68" x="1581" y="105"/><text fill="#000000" font-family="Courier" font-size="14" lengthAdjust="spacingAndGlyphs" textLength="48" x="1591" y="127.9951">Screen</text><rect fill="#F8F8F8" height="36.2969" style="stroke: #000000; stroke-width: 1.5;" width="212" x="1509" y="218"/><text fill="#000000" font-family="Courier" font-size="14" lengthAdjust="spacingAndGlyphs" textLength="192" x="1519" y="240.9951">Personalized Color Theme</text><rect fill="#F8F8F8" height="36.2969" style="stroke: #000000; stroke-width: 1.5;" width="52" x="1756" y="218"/><text fill="#000000" font-family="Courier" font-size="14" lengthAdjust="spacingAndGlyphs" textLength="32" x="1766" y="240.9951">Size</text><rect fill="#F8F8F8" height="36.2969" style="stroke: #000000; stroke-width: 1.5;" width="164" x="1700" y="331"/><text fill="#000000" font-family="Courier" font-size="14" lengthAdjust="spacingAndGlyphs" textLength="144" x="1710" y="353.9951">Mobile Phones size</text><rect fill="#F8F8F8" height="36.2969" style="stroke: #000000; stroke-width: 1.5;" width="108" x="1899" y="331"/><text fill="#000000" font-family="Courier" font-size="14" lengthAdjust="spacingAndGlyphs" textLength="88" x="1909" y="353.9951">Tablet size</text><rect fill="#F8F8F8" height="36.2969" style="stroke: #000000; stroke-width: 1.5;" width="60" x="1605" y="331"/><text fill="#000000" font-family="Courier" font-size="14" lengthAdjust="spacingAndGlyphs" textLength="40" x="1615" y="353.9951">Large</text><rect fill="#F8F8F8" height="36.2969" style="stroke: #000000; stroke-width: 1.5;" width="212" x="1074" y="8"/><text fill="#000000" font-family="Courier" font-size="14" lengthAdjust="spacingAndGlyphs" textLength="192" x="1084" y="30.9951">Articles Monitoring Tool</text><path d="M1184.71,261.14 C1218.48,282.2 1266.61,312.21 1296.55,330.88 " fill="none" id="AA&lt;-AB" style="stroke: #383838; stroke-width: 1.0;"/><polygon fill="#FFFFFF" points="1173.42,254.1,1176.3972,260.6678,1183.6049,260.4458,1180.6277,253.8779,1173.42,254.1" style="stroke: #383838; stroke-width: 1.0;"/><path d="M1148.67,267.63 C1149.8,294.92 1148.34,335.32 1134,367 C1119.54,398.94 1089.66,426.86 1068.51,443.8 " fill="none" id="AA&lt;-AC" style="stroke: #383838; stroke-width: 1.0;"/><polygon fill="#FFFFFF" points="1147.87,254.31,1144.2333,260.5369,1148.5824,266.2888,1152.2191,260.062,1147.87,254.31" style="stroke: #383838; stroke-width: 1.0;"/><path d="M1130.62,265.59 C1123.15,277.6 1113.32,291.06 1102,301 C1087.98,313.31 1070.17,323.37 1053.96,330.98 " fill="none" id="AA&lt;-AD" style="stroke: #383838; stroke-width: 1.0;"/><polygon fill="#FFFFFF" points="1137.28,254.25,1130.7954,257.4044,1131.2131,264.6034,1137.6977,261.449,1137.28,254.25" style="stroke: #383838; stroke-width: 1.0;"/><path d="M726.44,252.39 C728.31,252.94 730.17,253.48 732,254 C786.97,269.56 821.63,239.13 857,284 C867.49,297.31 861.03,316.81 853.79,330.78 " fill="none" id="A&lt;-B" style="stroke: #383838; stroke-width: 1.0;"/><polygon fill="#383838" points="714,248.55,718.5547,254.1406,725.4671,252.0864,720.9123,246.4959,714,248.55" style="stroke: #383838; stroke-width: 1.0;"/><path d="M698.37,265.32 C711.77,285.98 729.5,313.31 740.83,330.78 " fill="none" id="A&lt;-C" style="stroke: #383838; stroke-width: 1.0;"/><polygon fill="#383838" points="691.25,254.34,691.1665,261.5506,697.7903,264.401,697.8738,257.1904,691.25,254.34" style="stroke: #383838; stroke-width: 1.0;"/><path d="M634.74,260.05 C593.3,281.14 532.92,311.89 495.62,330.88 " fill="none" id="A&lt;-Z" style="stroke: #383838; stroke-width: 1.0;"/><polygon fill="#383838" points="646.42,254.1,639.2582,253.2583,635.7267,259.5455,642.8885,260.3872,646.42,254.1" style="stroke: #383838; stroke-width: 1.0;"/><path d="M663.6,265.9 C651.91,286.49 636.6,313.47 626.77,330.78 " fill="none" id="A&lt;-Y" style="stroke: #383838; stroke-width: 1.0;"/><polygon fill="#383838" points="670.16,254.34,663.7181,257.5807,664.2319,264.7735,670.6738,261.5328,670.16,254.34" style="stroke: #383838; stroke-width: 1.0;"/><path d="M462,367.34 C462,386.57 462,417.63 462,438.66 " fill="none" id="Z-&gt;W" style="stroke: #383838; stroke-width: 1.0;"/><ellipse cx="462" cy="437.78" fill="#383838" rx="6" ry="6" style="stroke: #383838; stroke-width: 1.5;"/><path d="M329.23,267.07 C324.63,287.5 318.7,313.8 314.88,330.78 " fill="none" id="E&lt;-F" style="stroke: #383838; stroke-width: 1.0;"/><polygon fill="#FFFFFF" points="332.09,254.34,326.8694,259.3145,329.4533,266.0468,334.6739,261.0723,332.09,254.34" style="stroke: #383838; stroke-width: 1.0;"/><path d="M289.94,259.42 C246.56,280.54 182.51,311.72 143.12,330.9 " fill="none" id="E&lt;-G" style="stroke: #383838; stroke-width: 1.0;"/><polygon fill="#FFFFFF" points="301.87,253.62,294.7247,252.6482,291.0795,258.8702,298.2248,259.8419,301.87,253.62" style="stroke: #383838; stroke-width: 1.0;"/><path d="M577.22,215.12 C617.79,191.56 689.39,159.09 749,180 C768.3,186.77 786.23,201.34 799.11,213.93 " fill="none" id="BC-BD" style="stroke: #383838; stroke-width: 1.0; stroke-dasharray: 1.0,3.0;"/><polygon fill="#383838" points="802.94,217.76,799.4045,208.5676,799.4045,214.2245,793.7476,214.2245,802.94,217.76" style="stroke: #383838; stroke-width: 1.0;"/><polygon fill="#383838" points="572.43,217.94,582.2157,216.826,576.74,215.4055,578.1605,209.9299,572.43,217.94" style="stroke: #383838; stroke-width: 1.0;"/><text fill="#000000" font-family="Courier" font-size="13" lengthAdjust="spacingAndGlyphs" textLength="72" x="676" y="184.0669">exclusive</text><path d="M375.35,236 C402.99,236 440.76,236 473.64,236 " fill="none" id="E-BC" style="stroke: #383838; stroke-width: 1.0; stroke-dasharray: 1.0,3.0;"/><polygon fill="#383838" points="478.88,236,469.88,232,473.88,236,469.88,240,478.88,236" style="stroke: #383838; stroke-width: 1.0;"/><polygon fill="#383838" points="370.04,236,379.04,240,375.04,236,379.04,232,370.04,236" style="stroke: #383838; stroke-width: 1.0;"/><text fill="#000000" font-family="Courier" font-size="13" lengthAdjust="spacingAndGlyphs" textLength="72" x="388.5" y="229.0669">exclusive</text><path d="M374.94,220.69 C437.31,198.13 563.44,160.64 670,180 C707.68,186.85 748.23,202.69 777.5,215.79 " fill="none" id="E-BD" style="stroke: #383838; stroke-width: 1.0; stroke-dasharray: 1.0,3.0;"/><polygon fill="#383838" points="782.1,217.86,775.5428,210.5113,777.5428,215.8028,772.2513,217.8029,782.1,217.86" style="stroke: #383838; stroke-width: 1.0;"/><polygon fill="#383838" points="370.19,222.42,380.0158,223.0939,374.8873,220.7067,377.2745,215.5782,370.19,222.42" style="stroke: #383838; stroke-width: 1.0;"/><text fill="#000000" font-family="Courier" font-size="13" lengthAdjust="spacingAndGlyphs" textLength="72" x="597" y="184.0669">exclusive</text><path d="M848.43,254.1 C882.78,274.06 939.5,307.03 975.78,328.11 " fill="none" id="BD-&gt;AD" style="stroke: #383838; stroke-width: 1.0; stroke-dasharray: 1.0,3.0;"/><polygon fill="#383838" points="980.54,330.88,974.7667,322.9007,976.2165,328.3686,970.7485,329.8184,980.54,330.88" style="stroke: #383838; stroke-width: 1.0;"/><text fill="#000000" font-family="Courier" font-size="13" lengthAdjust="spacingAndGlyphs" textLength="56" x="926" y="297.0669">require</text><path d="M578.46,153.99 C581.74,165.59 586.91,178.36 595,188 C608.34,203.89 628.48,215.36 645.81,222.99 " fill="none" id="BB&lt;-A" style="stroke: #383838; stroke-width: 1.0;"/><polygon fill="#383838" points="575.42,141.17,572.9116,147.9308,578.1876,152.8465,580.6959,146.0857,575.42,141.17" style="stroke: #383838; stroke-width: 1.0;"/><path d="M526.78,145.65 C480.83,167.17 411.41,199.68 370.2,218.98 " fill="none" id="BB&lt;-E" style="stroke: #383838; stroke-width: 1.0;"/><polygon fill="#383838" points="538.79,140.02,531.6598,138.943,527.9232,145.1105,535.0534,146.1875,538.79,140.02" style="stroke: #383838; stroke-width: 1.0;"/><path d="M559.95,153.11 C557.7,158.95 555.58,165.1 554,171 C549.82,186.61 547.49,204.91 546.26,217.93 " fill="none" id="BB&lt;-BC" style="stroke: #383838; stroke-width: 1.0;"/><polygon fill="#383838" points="564.93,141.06,558.9398,145.0747,560.3418,152.1482,566.332,148.1335,564.93,141.06" style="stroke: #383838; stroke-width: 1.0;"/><path d="M620.34,128.86 C659.19,134.48 714.52,146.36 757,171 C777.34,182.8 795.38,203.15 806.69,217.74 " fill="none" id="BB&lt;-BD" style="stroke: #383838; stroke-width: 1.0;"/><polygon fill="#383838" points="607.33,127.12,612.7449,131.8822,619.2235,128.7155,613.8086,123.9532,607.33,127.12" style="stroke: #383838; stroke-width: 1.0;"/><path d="M1293,154.36 C1293,174.75 1293,200.88 1293,217.78 " fill="none" id="H&lt;-I" style="stroke: #383838; stroke-width: 1.0;"/><polygon fill="#FFFFFF" points="1293,141.34,1289,147.34,1293,153.34,1297,147.34,1293,141.34" style="stroke: #383838; stroke-width: 1.0;"/><path d="M1322.5,149.79 C1346.39,170.67 1379.38,199.5 1400.2,217.7 " fill="none" id="H&lt;-J" style="stroke: #383838; stroke-width: 1.0;"/><polygon fill="#FFFFFF" points="1312.57,141.1,1314.4536,148.0608,1321.6034,148.9993,1319.7198,142.0385,1312.57,141.1" style="stroke: #383838; stroke-width: 1.0;"/><path d="M1640.73,141.1 C1670.64,160.98 1719.95,193.76 1751.69,214.85 " fill="none" id="X-&gt;V" style="stroke: #383838; stroke-width: 1.0;"/><ellipse cx="1751.2424" cy="214.5597" fill="#383838" rx="6" ry="6" style="stroke: #383838; stroke-width: 1.5;"/><path d="M1615,141.34 C1615,160.57 1615,191.63 1615,212.66 " fill="none" id="X-&gt;XA" style="stroke: #383838; stroke-width: 1.0;"/><ellipse cx="1615" cy="211.78" fill="#FFFFFF" rx="6" ry="6" style="stroke: #383838; stroke-width: 1.5;"/><path d="M1782,267.36 C1782,287.75 1782,313.88 1782,330.78 " fill="none" id="V&lt;-S" style="stroke: #383838; stroke-width: 1.0;"/><polygon fill="#383838" points="1782,254.34,1778,260.34,1782,266.34,1786,260.34,1782,254.34" style="stroke: #383838; stroke-width: 1.0;"/><path d="M1819.62,261.42 C1852.03,282.46 1897.99,312.29 1926.63,330.88 " fill="none" id="V&lt;-T" style="stroke: #383838; stroke-width: 1.0;"/><polygon fill="#383838" points="1808.34,254.1,1811.1944,260.7221,1818.4049,260.6343,1815.5506,254.0122,1808.34,254.1" style="stroke: #383838; stroke-width: 1.0;"/><path d="M1748.96,261.95 C1721.23,282.89 1682.34,312.26 1657.91,330.7 " fill="none" id="V&lt;-U" style="stroke: #383838; stroke-width: 1.0;"/><polygon fill="#383838" points="1759.35,254.1,1752.151,254.5174,1749.7674,261.3232,1756.9664,260.9058,1759.35,254.1" style="stroke: #383838; stroke-width: 1.0;"/><path d="M1177.22,44.02 C1171.1,81.43 1156.5,170.78 1149.65,212.64 " fill="none" id="R-&gt;AA" style="stroke: #383838; stroke-width: 1.0;"/><ellipse cx="1149.7813" cy="211.8175" fill="#383838" rx="6" ry="6" style="stroke: #383838; stroke-width: 1.5;"/><path d="M1073.92,43.6 C936.67,65.08 704.27,101.45 612.23,115.86 " fill="none" id="R-&gt;BB" style="stroke: #383838; stroke-width: 1.0;"/><ellipse cx="613.0882" cy="115.7248" fill="#FFFFFF" rx="6" ry="6" style="stroke: #383838; stroke-width: 1.5;"/><path d="M1200.46,44.2 C1219.66,60.34 1248.39,84.5 1268.74,101.6 " fill="none" id="R-&gt;H" style="stroke: #383838; stroke-width: 1.0;"/><ellipse cx="1268.0948" cy="101.0621" fill="#383838" rx="6" ry="6" style="stroke: #383838; stroke-width: 1.5;"/><path d="M1258.02,44.04 C1351.5,64.45 1504.42,97.85 1575.89,113.46 " fill="none" id="R-&gt;X" style="stroke: #383838; stroke-width: 1.0;"/><ellipse cx="1575.0257" cy="113.2811" fill="#383838" rx="6" ry="6" style="stroke: #383838; stroke-width: 1.5;"/><path d="M782.25,361.46 C832.63,380.54 934.18,419.02 995.22,442.14 " fill="none" id="C-&gt;AC" style="stroke: #383838; stroke-width: 1.0; stroke-dasharray: 1.0,3.0;"/><polygon fill="#383838" points="999.91,443.92,992.913,436.9888,995.2348,442.1472,990.0765,444.469,999.91,443.92" style="stroke: #383838; stroke-width: 1.0;"/><text fill="#000000" font-family="Courier" font-size="13" lengthAdjust="spacingAndGlyphs" textLength="56" x="917" y="410.0669">require</text><path d="M787.17,334.95 C791.46,333.49 795.8,332.13 800,331 C928.47,296.3 964.9,276.95 1097,293 C1153.96,299.92 1217.22,316.27 1262.46,329.53 " fill="none" id="C-AB" style="stroke: #383838; stroke-width: 1.0; stroke-dasharray: 1.0,3.0;"/><polygon fill="#383838" points="1267.34,330.97,1259.82,324.61,1262.54,329.57,1257.58,332.29,1267.34,330.97" style="stroke: #383838; stroke-width: 1.0;"/><polygon fill="#383838" points="782.19,336.69,792.005,337.5055,786.9115,335.0446,789.3724,329.9511,782.19,336.69" style="stroke: #383838; stroke-width: 1.0;"/><text fill="#000000" font-family="Courier" font-size="13" lengthAdjust="spacingAndGlyphs" textLength="72" x="1024" y="297.0669">exclusive</text><path d="M758.13,325.87 C762.62,313.82 770.08,300.14 782,293 C810.22,276.1 823.61,287.29 856,293 C894.96,299.86 937.04,315.79 967.34,328.92 " fill="none" id="C-AD" style="stroke: #383838; stroke-width: 1.0; stroke-dasharray: 1.0,3.0;"/><polygon fill="#383838" points="972.11,331,965.4595,323.7356,967.5269,329.0012,962.2614,331.0685,972.11,331" style="stroke: #383838; stroke-width: 1.0;"/><polygon fill="#383838" points="756.38,330.91,763.1121,323.7212,758.0209,326.1869,755.5552,321.0957,756.38,330.91" style="stroke: #383838; stroke-width: 1.0;"/><text fill="#000000" font-family="Courier" font-size="13" lengthAdjust="spacingAndGlyphs" textLength="72" x="783" y="297.0669">exclusive</text></g></svg>