<?xml version="1.0" encoding="UTF-8" standalone="no"?><svg xmlns="http://www.w3.org/2000/svg" xmlns:xlink="http://www.w3.org/1999/xlink" contentScriptType="application/ecmascript" contentStyleType="text/css" height="706px" preserveAspectRatio="none" style="width:1239px;height:706px;" version="1.1" viewBox="0 0 1239 706" width="1239px" zoomAndPan="magnify"><defs><filter height="300%" id="f1tqism8u3zidy" width="300%" x="-1" y="-1"><feGaussianBlur result="blurOut" stdDeviation="2.0"/><feColorMatrix in="blurOut" result="blurOut2" type="matrix" values="0 0 0 0 0 0 0 0 0 0 0 0 0 0 0 0 0 0 .4 0"/><feOffset dx="4.0" dy="4.0" in="blurOut2" result="blurOut3"/><feBlend in="SourceGraphic" in2="blurOut3" mode="normal"/></filter></defs><g><text fill="#000000" font-family="sans-serif" font-size="18" lengthAdjust="spacingAndGlyphs" textLength="159" x="537.5" y="16.708">Deployment View</text><polygon fill="#FFFFFF" filter="url(#f1tqism8u3zidy)" points="228,54.9531,238,44.9531,376,44.9531,376,126.9531,366,136.9531,228,136.9531,228,54.9531" style="stroke: #000000; stroke-width: 1.5;"/><line style="stroke: #000000; stroke-width: 1.5;" x1="366" x2="375" y1="54.9531" y2="45.9531"/><line style="stroke: #000000; stroke-width: 1.5;" x1="228" x2="366" y1="54.9531" y2="54.9531"/><line style="stroke: #000000; stroke-width: 1.5;" x1="366" x2="366" y1="54.9531" y2="136.9531"/><text fill="#000000" font-family="sans-serif" font-size="14" font-weight="bold" lengthAdjust="spacingAndGlyphs" textLength="72" x="262" y="70.9482">Frontend</text><polygon fill="#FFFFFF" filter="url(#f1tqism8u3zidy)" points="22,195.9531,32,185.9531,942,185.9531,942,549.9531,932,559.9531,22,559.9531,22,195.9531" style="stroke: #000000; stroke-width: 1.5;"/><line style="stroke: #000000; stroke-width: 1.5;" x1="932" x2="941" y1="195.9531" y2="186.9531"/><line style="stroke: #000000; stroke-width: 1.5;" x1="22" x2="932" y1="195.9531" y2="195.9531"/><line style="stroke: #000000; stroke-width: 1.5;" x1="932" x2="932" y1="195.9531" y2="559.9531"/><text fill="#000000" font-family="sans-serif" font-size="14" font-weight="bold" lengthAdjust="spacingAndGlyphs" textLength="67" x="444.5" y="211.9482">Backend</text><rect fill="#FFFFFF" filter="url(#f1tqism8u3zidy)" height="184" style="stroke: #000000; stroke-width: 1.5;" width="319" x="59" y="351.9531"/><rect fill="#FFFFFF" height="10" style="stroke: #000000; stroke-width: 1.5;" width="15" x="358" y="356.9531"/><rect fill="#FFFFFF" height="2" style="stroke: #000000; stroke-width: 1.5;" width="4" x="356" y="358.9531"/><rect fill="#FFFFFF" height="2" style="stroke: #000000; stroke-width: 1.5;" width="4" x="356" y="362.9531"/><text fill="#000000" font-family="sans-serif" font-size="14" font-weight="bold" lengthAdjust="spacingAndGlyphs" textLength="171" x="133" y="377.9482">Account Management</text><rect fill="#FFFFFF" filter="url(#f1tqism8u3zidy)" height="302" style="stroke: #000000; stroke-width: 1.5;" width="280" x="638" y="233.9531"/><rect fill="#FFFFFF" height="10" style="stroke: #000000; stroke-width: 1.5;" width="15" x="898" y="238.9531"/><rect fill="#FFFFFF" height="2" style="stroke: #000000; stroke-width: 1.5;" width="4" x="896" y="240.9531"/><rect fill="#FFFFFF" height="2" style="stroke: #000000; stroke-width: 1.5;" width="4" x="896" y="244.9531"/><text fill="#000000" font-family="sans-serif" font-size="14" font-weight="bold" lengthAdjust="spacingAndGlyphs" textLength="62" x="747" y="259.9482">Scraper</text><path d="M964,602.9531 C964,592.9531 1023,592.9531 1023,592.9531 C1023,592.9531 1082,592.9531 1082,602.9531 L1082,684.9531 C1082,694.9531 1023,694.9531 1023,694.9531 C1023,694.9531 964,694.9531 964,684.9531 L964,602.9531 " fill="#FFFFFF" filter="url(#f1tqism8u3zidy)" style="stroke: #000000; stroke-width: 1.5;"/><path d="M964,602.9531 C964,612.9531 1023,612.9531 1023,612.9531 C1023,612.9531 1082,612.9531 1082,602.9531 " fill="none" style="stroke: #000000; stroke-width: 1.5;"/><text fill="#000000" font-family="sans-serif" font-size="14" font-weight="bold" lengthAdjust="spacingAndGlyphs" textLength="73" x="986.5" y="627.9482">Database</text><rect fill="#FEFECE" filter="url(#f1tqism8u3zidy)" height="36.2969" style="stroke: #A80036; stroke-width: 1.5;" width="116" x="244" y="84.9531"/><rect fill="#FEFECE" height="5" style="stroke: #A80036; stroke-width: 1.5;" width="10" x="239" y="89.9531"/><rect fill="#FEFECE" height="5" style="stroke: #A80036; stroke-width: 1.5;" width="10" x="239" y="111.25"/><text fill="#000000" font-family="sans-serif" font-size="14" lengthAdjust="spacingAndGlyphs" textLength="96" x="254" y="107.9482">User Interface</text><rect fill="#FEFECE" filter="url(#f1tqism8u3zidy)" height="36.2969" style="stroke: #A80036; stroke-width: 1.5;" width="88" x="258" y="268.9531"/><rect fill="#FEFECE" height="5" style="stroke: #A80036; stroke-width: 1.5;" width="10" x="253" y="273.9531"/><rect fill="#FEFECE" height="5" style="stroke: #A80036; stroke-width: 1.5;" width="10" x="253" y="295.25"/><text fill="#000000" font-family="sans-serif" font-size="14" lengthAdjust="spacingAndGlyphs" textLength="68" x="268" y="291.9482">Global API</text><rect fill="#FEFECE" filter="url(#f1tqism8u3zidy)" height="36.2969" style="stroke: #A80036; stroke-width: 1.5;" width="94" x="397" y="386.9531"/><rect fill="#FEFECE" height="5" style="stroke: #A80036; stroke-width: 1.5;" width="10" x="392" y="391.9531"/><rect fill="#FEFECE" height="5" style="stroke: #A80036; stroke-width: 1.5;" width="10" x="392" y="413.25"/><text fill="#000000" font-family="sans-serif" font-size="14" lengthAdjust="spacingAndGlyphs" textLength="74" x="407" y="409.9482">Display API</text><rect fill="#FEFECE" filter="url(#f1tqism8u3zidy)" height="36.2969" style="stroke: #A80036; stroke-width: 1.5;" width="96" x="526" y="386.9531"/><rect fill="#FEFECE" height="5" style="stroke: #A80036; stroke-width: 1.5;" width="10" x="521" y="391.9531"/><rect fill="#FEFECE" height="5" style="stroke: #A80036; stroke-width: 1.5;" width="10" x="521" y="413.25"/><text fill="#000000" font-family="sans-serif" font-size="14" lengthAdjust="spacingAndGlyphs" textLength="76" x="536" y="409.9482">Actions API</text><rect fill="#FEFECE" filter="url(#f1tqism8u3zidy)" height="36.2969" style="stroke: #A80036; stroke-width: 1.5;" width="120" x="242" y="386.9531"/><rect fill="#FEFECE" height="5" style="stroke: #A80036; stroke-width: 1.5;" width="10" x="237" y="391.9531"/><rect fill="#FEFECE" height="5" style="stroke: #A80036; stroke-width: 1.5;" width="10" x="237" y="413.25"/><text fill="#000000" font-family="sans-serif" font-size="14" lengthAdjust="spacingAndGlyphs" textLength="100" x="252" y="409.9482">Authentication</text><rect fill="#FEFECE" filter="url(#f1tqism8u3zidy)" height="36.2969" style="stroke: #A80036; stroke-width: 1.5;" width="132" x="75" y="386.9531"/><rect fill="#FEFECE" height="5" style="stroke: #A80036; stroke-width: 1.5;" width="10" x="70" y="391.9531"/><rect fill="#FEFECE" height="5" style="stroke: #A80036; stroke-width: 1.5;" width="10" x="70" y="413.25"/><text fill="#000000" font-family="sans-serif" font-size="14" lengthAdjust="spacingAndGlyphs" textLength="112" x="85" y="409.9482">Password Reset</text><rect fill="#FEFECE" filter="url(#f1tqism8u3zidy)" height="36.2969" style="stroke: #A80036; stroke-width: 1.5;" width="145" x="75.5" y="483.9531"/><rect fill="#FEFECE" height="5" style="stroke: #A80036; stroke-width: 1.5;" width="10" x="70.5" y="488.9531"/><rect fill="#FEFECE" height="5" style="stroke: #A80036; stroke-width: 1.5;" width="10" x="70.5" y="510.25"/><text fill="#000000" font-family="sans-serif" font-size="14" lengthAdjust="spacingAndGlyphs" textLength="125" x="85.5" y="506.9482">Password Change</text><rect fill="#FEFECE" filter="url(#f1tqism8u3zidy)" height="36.2969" style="stroke: #A80036; stroke-width: 1.5;" width="73" x="803.5" y="386.9531"/><rect fill="#FEFECE" height="5" style="stroke: #A80036; stroke-width: 1.5;" width="10" x="798.5" y="391.9531"/><rect fill="#FEFECE" height="5" style="stroke: #A80036; stroke-width: 1.5;" width="10" x="798.5" y="413.25"/><text fill="#000000" font-family="sans-serif" font-size="14" lengthAdjust="spacingAndGlyphs" textLength="53" x="813.5" y="409.9482">Scraper</text><rect fill="#FEFECE" filter="url(#f1tqism8u3zidy)" height="36.2969" style="stroke: #A80036; stroke-width: 1.5;" width="248" x="654" y="268.9531"/><rect fill="#FEFECE" height="5" style="stroke: #A80036; stroke-width: 1.5;" width="10" x="649" y="273.9531"/><rect fill="#FEFECE" height="5" style="stroke: #A80036; stroke-width: 1.5;" width="10" x="649" y="295.25"/><text fill="#000000" font-family="sans-serif" font-size="14" lengthAdjust="spacingAndGlyphs" textLength="228" x="664" y="291.9482">Json Source Websites Repository</text><rect fill="#FEFECE" filter="url(#f1tqism8u3zidy)" height="36.2969" style="stroke: #A80036; stroke-width: 1.5;" width="117" x="781.5" y="483.9531"/><rect fill="#FEFECE" height="5" style="stroke: #A80036; stroke-width: 1.5;" width="10" x="776.5" y="488.9531"/><rect fill="#FEFECE" height="5" style="stroke: #A80036; stroke-width: 1.5;" width="10" x="776.5" y="510.25"/><text fill="#000000" font-family="sans-serif" font-size="14" lengthAdjust="spacingAndGlyphs" textLength="97" x="791.5" y="506.9482">Error Manager</text><rect fill="#FEFECE" filter="url(#f1tqism8u3zidy)" height="36.2969" style="stroke: #A80036; stroke-width: 1.5;" width="86" x="980" y="642.9531"/><rect fill="#FEFECE" height="5" style="stroke: #A80036; stroke-width: 1.5;" width="10" x="975" y="647.9531"/><rect fill="#FEFECE" height="5" style="stroke: #A80036; stroke-width: 1.5;" width="10" x="975" y="669.25"/><text fill="#000000" font-family="sans-serif" font-size="14" lengthAdjust="spacingAndGlyphs" textLength="66" x="990" y="665.9482">Database</text><path d="M326.44,304.9931 C341.58,315.7831 361.27,330.2431 378,343.9531 C394.89,357.7931 413.2,374.5831 426.23,386.8831 " fill="none" id="API-DAPI" style="stroke: #A80036; stroke-width: 1.0;"/><path d="M346.32,293.6531 C389.89,300.6531 457.19,315.3231 509,343.9531 C528.89,354.9431 547.51,373.2831 559.68,386.7931 " fill="none" id="API-AAPI" style="stroke: #A80036; stroke-width: 1.0;"/><path d="M302,305.0731 C302,327.0031 302,364.8031 302,386.7631 " fill="none" id="API-A" style="stroke: #A80036; stroke-width: 1.0;"/><path d="M278.24,305.0731 C247.8,327.0031 195.34,364.8031 164.85,386.7631 " fill="none" id="API-PR" style="stroke: #A80036; stroke-width: 1.0;"/><path d="M257.84,291.5831 C194.21,297.8231 81.65,313.0331 57,343.9531 C35.11,371.4031 42.33,391.0531 57,422.9531 C69.17,449.4231 95.25,470.2631 116.38,483.7231 " fill="none" id="API-PC" style="stroke: #A80036; stroke-width: 1.0;"/><path d="M142.28,423.3731 C143.55,440.5231 145.46,466.5331 146.72,483.6431 " fill="none" id="PR-PC" style="stroke: #A80036; stroke-width: 1.0;"/><path d="M302,121.0731 C302,155.7631 302,233.9831 302,268.7431 " fill="none" id="UI-API" style="stroke: #A80036; stroke-width: 1.0;"/><text fill="#000000" font-family="sans-serif" font-size="13" lengthAdjust="spacingAndGlyphs" textLength="41" x="303" y="166.02">HTTPS</text><path d="M787.73,305.3031 C792.66,314.1531 798.7,325.0931 804,334.9531 C813.47,352.5631 824.02,372.8731 831.24,386.8831 " fill="none" id="JSON-SC" style="stroke: #A80036; stroke-width: 1.0;"/><path d="M491.34,419.5031 C497.25,420.8531 503.24,422.0531 509,422.9531 C568.37,432.2731 1007.7,409.3031 1049,452.9531 C1099.03,505.8431 1054.47,603.2831 1033.01,642.7131 " fill="none" id="DAPI-DB" style="stroke: #A80036; stroke-width: 1.0;"/><path d="M622.01,419.7931 C627.37,421.0131 632.78,422.1031 638,422.9531 C690.97,431.5531 1083.25,413.8531 1120,452.9531 C1157.74,493.1131 1143.05,526.8931 1120,576.9531 C1106.65,605.9431 1077.63,628.5831 1054.79,642.8431 " fill="none" id="AAPI-DB" style="stroke: #A80036; stroke-width: 1.0;"/><path d="M362.22,422.3231 C363.49,422.5531 364.75,422.7631 366,422.9531 C433.27,433.4131 926.05,408.9431 978,452.9531 C1034.82,501.0931 1029.91,602.5931 1025.37,642.9131 " fill="none" id="A-DB" style="stroke: #A80036; stroke-width: 1.0;"/><path d="M207.37,420.0931 C213.31,421.1531 219.26,422.1231 225,422.9531 C378,445.1031 787.05,401.7931 918,483.9531 C977.68,521.3931 1007.85,606.2031 1018.46,642.7131 " fill="none" id="PR-DB" style="stroke: #A80036; stroke-width: 1.0;"/><path d="M220.72,516.0031 C396.45,547.5331 839.97,627.1131 979.97,652.2331 " fill="none" id="PC-DB" style="stroke: #A80036; stroke-width: 1.0;"/><path d="M876.58,408.1631 C962.3,413.7131 1170.48,429.5031 1191,452.9531 C1227.29,494.4231 1220.09,530.1431 1191,576.9531 C1163.87,620.6131 1106.24,641.9931 1066.08,651.9731 " fill="none" id="SC-DB" style="stroke: #A80036; stroke-width: 1.0;"/><path d="M840,423.3731 C840,440.5231 840,466.5331 840,483.6431 " fill="none" id="SC-EM" style="stroke: #A80036; stroke-width: 1.0;"/><path d="M859.8,520.0131 C877.22,535.0231 903.28,557.4531 926,576.9531 C952.58,599.7531 983.3,626.0331 1002.92,642.8031 " fill="none" id="EM-DB" style="stroke: #A80036; stroke-width: 1.0;"/></g></svg>